<?xml version="1.0" encoding="UTF-8" standalone="no"?>
<svg
   xmlns:dc="http://purl.org/dc/elements/1.1/"
   xmlns:cc="http://creativecommons.org/ns#"
   xmlns:rdf="http://www.w3.org/1999/02/22-rdf-syntax-ns#"
   xmlns:svg="http://www.w3.org/2000/svg"
   xmlns="http://www.w3.org/2000/svg"
   xmlns:xlink="http://www.w3.org/1999/xlink"
   xmlns:sodipodi="http://sodipodi.sourceforge.net/DTD/sodipodi-0.dtd"
   xmlns:inkscape="http://www.inkscape.org/namespaces/inkscape"
   version="1.1"
   x="0px"
   y="0px"
   width="24px"
   height="24px"
   viewBox="0 0 24 24"
   id="svg5"
   sodipodi:docname="close_focused_pressed.svg"
   inkscape:version="1.0.2 (e86c870879, 2021-01-15)">
  <metadata
     id="metadata11">
    <rdf:RDF>
      <cc:Work
         rdf:about="">
        <dc:format>image/svg+xml</dc:format>
        <dc:type
           rdf:resource="http://purl.org/dc/dcmitype/StillImage" />
        <dc:title></dc:title>
      </cc:Work>
    </rdf:RDF>
  </metadata>
  <defs
     id="defs9" />
  <sodipodi:namedview
     pagecolor="#ffffff"
     bordercolor="#666666"
     borderopacity="1"
     objecttolerance="10"
     gridtolerance="10"
     guidetolerance="10"
     inkscape:pageopacity="0"
     inkscape:pageshadow="2"
     inkscape:window-width="691"
     inkscape:window-height="480"
     id="namedview7"
     showgrid="false"
     inkscape:zoom="22.791667"
     inkscape:cx="12"
     inkscape:cy="12"
     inkscape:window-x="0"
     inkscape:window-y="0"
     inkscape:window-maximized="0"
     inkscape:current-layer="svg5" />
  <path
     id="a"
     fill="#c22f2f"
     d="M16,8c0,0,0,0.2-0.1,0.6c0,0.2-0.1,0.4-0.1,0.7c0,0.1-0.1,0.3-0.1,0.4c0,0.1-0.2,0.2-0.3,0.3c-0.7,0.7-1.7,1.7-2.7,2.7c-1,1-2,2-2.7,2.7c-0.1,0.1-0.1,0.2-0.3,0.3c-0.1,0-0.3,0.1-0.4,0.1c-0.2,0.1-0.5,0.1-0.7,0.1C8.2,16,8,16,8,16s0-0.2,0.1-0.6c0-0.2,0.1-0.4,0.1-0.7c0-0.1,0.1-0.3,0.1-0.4c0-0.1,0.2-0.2,0.3-0.3c0.7-0.7,1.7-1.7,2.7-2.7c1-1,2-2,2.7-2.7c0.1-0.1,0.1-0.2,0.3-0.3c0.1,0,0.3-0.1,0.4-0.1c0.2-0.1,0.5-0.1,0.7-0.1C15.7,8,16,8,16,8z" />
  <use
     xlink:href="#a"
     transform="matrix(-1,0,0,1,24,0)"
     id="use3" />
</svg>
