<?xml version="1.0" encoding="UTF-8" standalone="no"?>
<svg
 xmlns:ns2="http://ns.adobe.com/AdobeIllustrator/10.0/"
 xmlns:dc="http://purl.org/dc/elements/1.1/"
 xmlns:cc="http://creativecommons.org/ns#"
 xmlns:rdf="http://www.w3.org/1999/02/22-rdf-syntax-ns#"
 xmlns:svg="http://www.w3.org/2000/svg"
 xmlns="http://www.w3.org/2000/svg"
 xmlns:sodipodi="http://sodipodi.sourceforge.net/DTD/sodipodi-0.dtd"
 xmlns:inkscape="http://www.inkscape.org/namespaces/inkscape"
 id="SVGRoot"
 version="1.1"
 viewBox="0 0 1920 1080"
 height="1080px"
 width="1920px"
 inkscape:version="1.0.1 (3bc2e813f5, 2020-09-07)"
 sodipodi:docname="1080.svg"
 inkscape:export-filename="/home/kushagra/Projects/GraphicResource/Wallpaper/Debian 11/1080.png"
 inkscape:export-xdpi="96"
 inkscape:export-ydpi="96">
<defs
 id="defs49">
<clipPath
 clipPathUnits="userSpaceOnUse"
 id="clipPath1429">
<rect
 style="opacity:1;fill:#ffffff;stroke-width:7.55906"
 id="rect1431"
 width="1920"
 height="1080"
 x="0"
 y="0" />
</clipPath>
</defs>
<sodipodi:namedview
 inkscape:window-maximized="1"
 inkscape:window-y="0"
 inkscape:window-x="0"
 inkscape:window-height="714"
 inkscape:window-width="1366"
 id="base"
 pagecolor="#ffffff"
 bordercolor="#666666"
 borderopacity="1.0"
 inkscape:pageopacity="1"
 inkscape:pageshadow="2"
 inkscape:zoom="0.24165853"
 inkscape:cx="397.0335"
 inkscape:cy="111.0633"
 inkscape:document-units="px"
 inkscape:current-layer="layer1"
 inkscape:document-rotation="0"
 showgrid="false"
 inkscape:snap-bbox="true"
 inkscape:bbox-paths="true"
 inkscape:bbox-nodes="true"
 inkscape:snap-bbox-edge-midpoints="true"
 inkscape:snap-bbox-midpoints="true"
 inkscape:object-paths="true"
 inkscape:snap-intersection-paths="true"
 inkscape:snap-smooth-nodes="true"
 inkscape:snap-midpoints="true"
 inkscape:snap-center="true"
 inkscape:snap-page="true">
<sodipodi:guide
 position="0,1080"
 orientation="0,1920"
 id="guide992" />
<sodipodi:guide
 position="1920,1080"
 orientation="1080,0"
 id="guide994" />
<sodipodi:guide
 position="1920,0"
 orientation="0,-1920"
 id="guide996" />
<sodipodi:guide
 position="0,0"
 orientation="-1080,0"
 id="guide998" />
</sodipodi:namedview>
<metadata
 id="metadata52">
<rdf:RDF>
<cc:Work
 rdf:about="">
<dc:format>image/svg+xml</dc:format>
<dc:type
 rdf:resource="http://purl.org/dc/dcmitype/StillImage" />
<dc:title />
</cc:Work>
</rdf:RDF>
</metadata>
<g
 inkscape:label="Layer 1"
 inkscape:groupmode="layer"
 id="layer1">
<g
 id="g1427"
 clip-path="url(#clipPath1429)"
 inkscape:export-xdpi="96"
 inkscape:export-ydpi="96">
<g
 inkscape:export-ydpi="96"
 inkscape:export-xdpi="96"
 inkscape:export-filename="C:\Users\xine\Documents\2018-debian-buster\futurePrototype-source\desktop-wallpaper\png\wallpaper-4096x2160.png"
 transform="matrix(4.610462,0,0,4.610462,759.53506,290)"
 id="g1007"
 style="display:inline;overflow:visible;fill:#a51d2d;fill-opacity:1;stroke-width:2">
<g
 style="fill:#a51d2d;fill-opacity:1;stroke-width:2"
 id="Layer_1"
 ns2:layer="yes"
 ns2:dimmedPercent="50"
 ns2:rgbTrio="#4F008000FFFF">
<g
 style="fill:#a51d2d;fill-opacity:1;stroke-width:2"
 id="g984">
<path
 style="fill:#a51d2d;fill-opacity:1;stroke-width:2"
 inkscape:connector-curvature="0"
 ns2:knockout="Off"
 d="m 51.986,57.297 c -1.797,0.025 0.34,0.926 2.686,1.287 0.648,-0.506 1.236,-1.018 1.76,-1.516 -1.461,0.358 -2.948,0.366 -4.446,0.229"
 id="path960" />
<path
 style="fill:#a51d2d;fill-opacity:1;stroke-width:2"
 inkscape:connector-curvature="0"
 ns2:knockout="Off"
 d="m 61.631,54.893 c 1.07,-1.477 1.85,-3.094 2.125,-4.766 -0.24,1.192 -0.887,2.221 -1.496,3.307 -3.359,2.115 -0.316,-1.256 -0.002,-2.537 -3.612,4.546 -0.496,2.726 -0.627,3.996"
 id="path962" />
<path
 style="fill:#a51d2d;fill-opacity:1;stroke-width:2"
 inkscape:connector-curvature="0"
 ns2:knockout="Off"
 d="m 65.191,45.629 c 0.217,-3.236 -0.637,-2.213 -0.924,-0.978 0.335,0.174 0.6,2.281 0.924,0.978"
 id="path964" />
<path
 style="fill:#a51d2d;fill-opacity:1;stroke-width:2"
 inkscape:connector-curvature="0"
 ns2:knockout="Off"
 d="m 45.172,1.399 c 0.959,0.172 2.072,0.304 1.916,0.533 1.049,-0.23 1.287,-0.442 -1.916,-0.533"
 id="path966" />
<path
 style="fill:#a51d2d;fill-opacity:1;stroke-width:2"
 inkscape:connector-curvature="0"
 ns2:knockout="Off"
 d="M 47.088,1.932 46.41,2.072 47.041,2.016 47.088,1.932"
 id="path968" />
<path
 style="fill:#a51d2d;fill-opacity:1;stroke-width:2"
 inkscape:connector-curvature="0"
 ns2:knockout="Off"
 d="m 76.992,46.856 c 0.107,2.906 -0.85,4.316 -1.713,6.812 l -1.553,0.776 c -1.271,2.468 0.123,1.567 -0.787,3.53 -1.984,1.764 -6.021,5.52 -7.313,5.863 -0.943,-0.021 0.639,-1.113 0.846,-1.541 -2.656,1.824 -2.131,2.738 -6.193,3.846 L 60.16,65.878 C 50.142,70.591 36.226,61.251 36.409,48.507 c -0.107,0.809 -0.304,0.607 -0.526,0.934 -0.517,-6.557 3.028,-13.143 9.007,-15.832 5.848,-2.895 12.704,-1.707 16.893,2.197 -2.301,-3.014 -6.881,-6.209 -12.309,-5.91 -5.317,0.084 -10.291,3.463 -11.951,7.131 -2.724,1.715 -3.04,6.611 -4.227,7.507 -1.597,11.737 3.004,16.808 10.787,22.773 1.225,0.826 0.345,0.951 0.511,1.58 -2.586,-1.211 -4.954,-3.039 -6.901,-5.277 1.033,1.512 2.148,2.982 3.589,4.137 -2.438,-0.826 -5.695,-5.908 -6.646,-6.115 4.203,7.525 17.052,13.197 23.78,10.383 -3.113,0.115 -7.068,0.064 -10.566,-1.229 -1.469,-0.756 -3.467,-2.322 -3.11,-2.615 9.182,3.43 18.667,2.598 26.612,-3.771 2.021,-1.574 4.229,-4.252 4.867,-4.289 -0.961,1.445 0.164,0.695 -0.574,1.971 2.014,-3.248 -0.875,-1.322 2.082,-5.609 l 1.092,1.504 c -0.406,-2.696 3.348,-5.97 2.967,-10.234 0.861,-1.304 0.961,1.403 0.047,4.403 1.268,-3.328 0.334,-3.863 0.66,-6.609 0.352,0.923 0.814,1.904 1.051,2.878 -0.826,-3.216 0.848,-5.416 1.262,-7.285 -0.408,-0.181 -1.275,1.422 -1.473,-2.377 0.029,-1.65 0.459,-0.865 0.625,-1.271 -0.324,-0.186 -1.174,-1.451 -1.691,-3.877 0.375,-0.57 1.002,1.478 1.512,1.562 -0.328,-1.929 -0.893,-3.4 -0.916,-4.88 -1.49,-3.114 -0.527,0.415 -1.736,-1.337 -1.586,-4.947 1.316,-1.148 1.512,-3.396 2.404,3.483 3.775,8.881 4.404,11.117 -0.48,-2.726 -1.256,-5.367 -2.203,-7.922 0.73,0.307 -1.176,-5.609 0.949,-1.691 C 83.519,18.706 76.074,10.902 69.225,7.24 70.063,8.007 71.121,8.97 70.741,9.121 67.335,7.093 67.934,6.935 67.446,6.078 64.671,4.949 64.489,6.169 62.651,6.08 57.421,3.306 56.413,3.601 51.6,1.863 l 0.219,1.023 c -3.465,-1.154 -4.037,0.438 -7.782,0.004 -0.228,-0.178 1.2,-0.644 2.375,-0.815 -3.35,0.442 -3.193,-0.66 -6.471,0.122 0.808,-0.567 1.662,-0.942 2.524,-1.424 -2.732,0.166 -6.522,1.59 -5.352,0.295 -4.456,1.988 -12.37,4.779 -16.811,8.943 l -0.14,-0.933 c -2.035,2.443 -8.874,7.296 -9.419,10.46 l -0.544,0.127 c -1.059,1.793 -1.744,3.825 -2.584,5.67 -1.385,2.36 -2.03,0.908 -1.833,1.278 -2.724,5.523 -4.077,10.164 -5.246,13.97 0.833,1.245 0.02,7.495 0.335,12.497 -1.368,24.704 17.338,48.69 37.785,54.228 2.997,1.072 7.454,1.031 11.245,1.141 -4.473,-1.279 -5.051,-0.678 -9.408,-2.197 -3.143,-1.48 -3.832,-3.17 -6.058,-5.102 l 0.881,1.557 c -4.366,-1.545 -2.539,-1.912 -6.091,-3.037 l 0.941,-1.229 C 28.751,98.334 26.418,96.056 25.78,94.795 l -1.548,0.061 c -1.86,-2.295 -2.851,-3.949 -2.779,-5.23 l -0.5,0.891 c -0.567,-0.973 -6.843,-8.607 -3.587,-6.83 -0.605,-0.553 -1.409,-0.9 -2.281,-2.484 l 0.663,-0.758 c -1.567,-2.016 -2.884,-4.6 -2.784,-5.461 0.836,1.129 1.416,1.34 1.99,1.533 -3.957,-9.818 -4.179,-0.541 -7.176,-9.994 L 8.412,66.472 C 7.926,65.74 7.631,64.945 7.24,64.165 l 0.276,-2.75 C 4.667,58.121 6.719,47.409 7.13,41.534 7.415,39.145 9.508,36.602 11.1,32.614 l -0.97,-0.167 c 1.854,-3.234 10.586,-12.988 14.63,-12.486 1.959,-2.461 -0.389,-0.009 -0.772,-0.629 4.303,-4.453 5.656,-3.146 8.56,-3.947 3.132,-1.859 -2.688,0.725 -1.203,-0.709 5.414,-1.383 3.837,-3.144 10.9,-3.846 0.745,0.424 -1.729,0.655 -2.35,1.205 4.511,-2.207 14.275,-1.705 20.617,1.225 7.359,3.439 15.627,13.605 15.953,23.17 l 0.371,0.1 c -0.188,3.802 0.582,8.199 -0.752,12.238 l 0.908,-1.912"
 id="path970" />
<path
 style="fill:#a51d2d;fill-opacity:1;stroke-width:2"
 inkscape:connector-curvature="0"
 ns2:knockout="Off"
 d="m 32.372,59.764 -0.252,1.26 c 1.181,1.604 2.118,3.342 3.626,4.596 -1.085,-2.118 -1.891,-2.993 -3.374,-5.856"
 id="path972" />
<path
 style="fill:#a51d2d;fill-opacity:1;stroke-width:2"
 inkscape:connector-curvature="0"
 ns2:knockout="Off"
 d="m 35.164,59.654 c -0.625,-0.691 -0.995,-1.523 -1.409,-2.352 0.396,1.457 1.207,2.709 1.962,3.982 l -0.553,-1.63"
 id="path974" />
<path
 style="fill:#a51d2d;fill-opacity:1;stroke-width:2"
 inkscape:connector-curvature="0"
 ns2:knockout="Off"
 d="m 84.568,48.916 -0.264,0.662 c -0.484,3.438 -1.529,6.84 -3.131,9.994 1.77,-3.328 2.915,-6.968 3.395,-10.656"
 id="path976" />
<path
 style="fill:#a51d2d;fill-opacity:1;stroke-width:2"
 inkscape:connector-curvature="0"
 ns2:knockout="Off"
 d="M 45.527,0.537 C 46.742,0.092 48.514,0.293 49.803,0 48.123,0.141 46.451,0.225 44.8,0.438 l 0.727,0.099"
 id="path978" />
<path
 style="fill:#a51d2d;fill-opacity:1;stroke-width:2"
 inkscape:connector-curvature="0"
 ns2:knockout="Off"
 d="m 2.872,23.219 c 0.28,2.592 -1.95,3.598 0.494,1.889 1.31,-2.951 -0.512,-0.815 -0.494,-1.889"
 id="path980" />
<path
 style="fill:#a51d2d;fill-opacity:1;stroke-width:2"
 inkscape:connector-curvature="0"
 ns2:knockout="Off"
 d="M 0,35.215 C 0.563,33.487 0.665,32.449 0.88,31.449 -0.676,33.438 0.164,33.862 0,35.215"
 id="path982" />
</g>
</g>
</g>
<rect
 style="fill:#a80030;fill-opacity:1;stroke:none;stroke-width:1.88976;stroke-opacity:1"
 id="rect137"
 width="1920"
 height="1080"
 x="0"
 y="0" />
<g
 id="g1302"
 transform="matrix(0.9532793,0,0,0.9532793,-813.92924,-198.7215)">
<path
 id="path1284"
 style="opacity:1;fill:#8ff0a4;fill-opacity:1;stroke-width:7.55906"
 d="m 853.82031,390.1543 -157.35156,90.84765 157.35156,90.84571 157.35159,-90.84571 z" />
<path
 id="path1286"
 style="opacity:1;fill:#f9f06b;fill-opacity:1;stroke-width:7.55906"
 d="m 853.82031,208.46094 -157.35156,90.8457 V 481.00195 L 853.82031,390.1543 Z" />
<path
 id="path1288"
 style="opacity:1;fill:#99c1f1;fill-opacity:1;stroke-width:7.55906"
 d="M 853.82031,208.46094 V 390.1543 l 157.35159,90.84765 V 299.30664 Z" />
<path
 id="path1290"
 style="opacity:1;fill:#e5a50a;fill-opacity:1;stroke-width:7.55906"
 d="m 853.82031,208.46094 -78.67578,45.42187 v 181.69531 l 78.67578,-45.42382 z" />
<path
 id="path1292"
 style="opacity:1;fill:#e5a50a;fill-opacity:1;stroke-width:7.55906"
 d="M 853.82031,299.30859 696.46875,390.1543 v 90.84765 L 853.82031,390.1543 Z" />
<path
 id="path1294"
 style="opacity:1;fill:#1a5fb4;fill-opacity:1;stroke-width:7.55906"
 d="M 853.82031,208.46094 V 390.1543 l 78.67578,45.42382 V 253.88281 Z" />
<path
 id="path1296"
 style="opacity:1;fill:#1a5fb4;fill-opacity:1;stroke-width:7.55906"
 d="m 853.82031,299.30859 v 90.84571 l 157.35159,90.84765 v -90.84961 z" />
<path
 id="path1298"
 style="opacity:1;fill:#26a269;fill-opacity:1;stroke-width:7.55906"
 d="m 853.82031,390.1543 -78.67578,45.42382 157.35156,90.84571 78.67581,-45.42188 z" />
<path
 id="path1300"
 style="opacity:1;fill:#26a269;fill-opacity:1;stroke-width:7.55906"
 d="m 853.82031,390.1543 -157.35156,90.84765 78.67578,45.42188 157.35156,-90.84571 z" />
</g>
<g
 id="g1322"
 transform="matrix(0.9532793,0,0,0.9532793,-513.92924,-198.72243)">
<path
 id="path1304"
 style="opacity:1;fill:#8ff0a4;fill-opacity:1;stroke-width:7.55906"
 d="m 853.82031,390.1543 -157.35156,90.84765 157.35156,90.84571 157.35159,-90.84571 z" />
<path
 id="path1306"
 style="opacity:1;fill:#f9f06b;fill-opacity:1;stroke-width:7.55906"
 d="m 853.82031,208.46094 -157.35156,90.8457 V 481.00195 L 853.82031,390.1543 Z" />
<path
 id="path1308"
 style="opacity:1;fill:#99c1f1;fill-opacity:1;stroke-width:7.55906"
 d="M 853.82031,208.46094 V 390.1543 l 157.35159,90.84765 V 299.30664 Z" />
<path
 id="path1310"
 style="opacity:1;fill:#e5a50a;fill-opacity:1;stroke-width:7.55906"
 d="m 853.82031,208.46094 -78.67578,45.42187 v 181.69531 l 78.67578,-45.42382 z" />
<path
 id="path1312"
 style="opacity:1;fill:#e5a50a;fill-opacity:1;stroke-width:7.55906"
 d="M 853.82031,299.30859 696.46875,390.1543 v 90.84765 L 853.82031,390.1543 Z" />
<path
 id="path1314"
 style="opacity:1;fill:#1a5fb4;fill-opacity:1;stroke-width:7.55906"
 d="M 853.82031,208.46094 V 390.1543 l 78.67578,45.42382 V 253.88281 Z" />
<path
 id="path1316"
 style="opacity:1;fill:#1a5fb4;fill-opacity:1;stroke-width:7.55906"
 d="m 853.82031,299.30859 v 90.84571 l 157.35159,90.84765 v -90.84961 z" />
<path
 id="path1318"
 style="opacity:1;fill:#26a269;fill-opacity:1;stroke-width:7.55906"
 d="m 853.82031,390.1543 -78.67578,45.42382 157.35156,90.84571 78.67581,-45.42188 z" />
<path
 id="path1320"
 style="opacity:1;fill:#26a269;fill-opacity:1;stroke-width:7.55906"
 d="m 853.82031,390.1543 -157.35156,90.84765 78.67578,45.42188 157.35156,-90.84571 z" />
</g>
<g
 id="g1342"
 transform="matrix(0.9532793,0,0,0.9532793,-213.92924,-198.72337)">
<path
 id="path1324"
 style="opacity:1;fill:#8ff0a4;fill-opacity:1;stroke-width:7.55906"
 d="m 853.82031,390.1543 -157.35156,90.84765 157.35156,90.84571 157.35159,-90.84571 z" />
<path
 id="path1326"
 style="opacity:1;fill:#f9f06b;fill-opacity:1;stroke-width:7.55906"
 d="m 853.82031,208.46094 -157.35156,90.8457 V 481.00195 L 853.82031,390.1543 Z" />
<path
 id="path1328"
 style="opacity:1;fill:#99c1f1;fill-opacity:1;stroke-width:7.55906"
 d="M 853.82031,208.46094 V 390.1543 l 157.35159,90.84765 V 299.30664 Z" />
<path
 id="path1330"
 style="opacity:1;fill:#e5a50a;fill-opacity:1;stroke-width:7.55906"
 d="m 853.82031,208.46094 -78.67578,45.42187 v 181.69531 l 78.67578,-45.42382 z" />
<path
 id="path1332"
 style="opacity:1;fill:#e5a50a;fill-opacity:1;stroke-width:7.55906"
 d="M 853.82031,299.30859 696.46875,390.1543 v 90.84765 L 853.82031,390.1543 Z" />
<path
 id="path1334"
 style="opacity:1;fill:#1a5fb4;fill-opacity:1;stroke-width:7.55906"
 d="M 853.82031,208.46094 V 390.1543 l 78.67578,45.42382 V 253.88281 Z" />
<path
 id="path1336"
 style="opacity:1;fill:#1a5fb4;fill-opacity:1;stroke-width:7.55906"
 d="m 853.82031,299.30859 v 90.84571 l 157.35159,90.84765 v -90.84961 z" />
<path
 id="path1338"
 style="opacity:1;fill:#26a269;fill-opacity:1;stroke-width:7.55906"
 d="m 853.82031,390.1543 -78.67578,45.42382 157.35156,90.84571 78.67581,-45.42188 z" />
<path
 id="path1340"
 style="opacity:1;fill:#26a269;fill-opacity:1;stroke-width:7.55906"
 d="m 853.82031,390.1543 -157.35156,90.84765 78.67578,45.42188 157.35156,-90.84571 z" />
</g>
<g
 id="g1362"
 transform="matrix(0.9532793,0,0,0.9532793,86.070758,-198.7243)">
<path
 id="path1344"
 style="opacity:1;fill:#8ff0a4;fill-opacity:1;stroke-width:7.55906"
 d="m 853.82031,390.1543 -157.35156,90.84765 157.35156,90.84571 157.35159,-90.84571 z" />
<path
 id="path1346"
 style="opacity:1;fill:#f9f06b;fill-opacity:1;stroke-width:7.55906"
 d="m 853.82031,208.46094 -157.35156,90.8457 V 481.00195 L 853.82031,390.1543 Z" />
<path
 id="path1348"
 style="opacity:1;fill:#99c1f1;fill-opacity:1;stroke-width:7.55906"
 d="M 853.82031,208.46094 V 390.1543 l 157.35159,90.84765 V 299.30664 Z" />
<path
 id="path1350"
 style="opacity:1;fill:#e5a50a;fill-opacity:1;stroke-width:7.55906"
 d="m 853.82031,208.46094 -78.67578,45.42187 v 181.69531 l 78.67578,-45.42382 z" />
<path
 id="path1352"
 style="opacity:1;fill:#e5a50a;fill-opacity:1;stroke-width:7.55906"
 d="M 853.82031,299.30859 696.46875,390.1543 v 90.84765 L 853.82031,390.1543 Z" />
<path
 id="path1354"
 style="opacity:1;fill:#1a5fb4;fill-opacity:1;stroke-width:7.55906"
 d="M 853.82031,208.46094 V 390.1543 l 78.67578,45.42382 V 253.88281 Z" />
<path
 id="path1356"
 style="opacity:1;fill:#1a5fb4;fill-opacity:1;stroke-width:7.55906"
 d="m 853.82031,299.30859 v 90.84571 l 157.35159,90.84765 v -90.84961 z" />
<path
 id="path1358"
 style="opacity:1;fill:#26a269;fill-opacity:1;stroke-width:7.55906"
 d="m 853.82031,390.1543 -78.67578,45.42382 157.35156,90.84571 78.67581,-45.42188 z" />
<path
 id="path1360"
 style="opacity:1;fill:#26a269;fill-opacity:1;stroke-width:7.55906"
 d="m 853.82031,390.1543 -157.35156,90.84765 78.67578,45.42188 157.35156,-90.84571 z" />
</g>
<g
 id="g1382"
 transform="matrix(0.9532793,0,0,0.9532793,386.07076,-198.72338)">
<path
 id="path1364"
 style="opacity:1;fill:#8ff0a4;fill-opacity:1;stroke-width:7.55906"
 d="m 853.82031,390.1543 -157.35156,90.84765 157.35156,90.84571 157.35159,-90.84571 z" />
<path
 id="path1366"
 style="opacity:1;fill:#f9f06b;fill-opacity:1;stroke-width:7.55906"
 d="m 853.82031,208.46094 -157.35156,90.8457 V 481.00195 L 853.82031,390.1543 Z" />
<path
 id="path1368"
 style="opacity:1;fill:#99c1f1;fill-opacity:1;stroke-width:7.55906"
 d="M 853.82031,208.46094 V 390.1543 l 157.35159,90.84765 V 299.30664 Z" />
<path
 id="path1370"
 style="opacity:1;fill:#e5a50a;fill-opacity:1;stroke-width:7.55906"
 d="m 853.82031,208.46094 -78.67578,45.42187 v 181.69531 l 78.67578,-45.42382 z" />
<path
 id="path1372"
 style="opacity:1;fill:#e5a50a;fill-opacity:1;stroke-width:7.55906"
 d="M 853.82031,299.30859 696.46875,390.1543 v 90.84765 L 853.82031,390.1543 Z" />
<path
 id="path1374"
 style="opacity:1;fill:#1a5fb4;fill-opacity:1;stroke-width:7.55906"
 d="M 853.82031,208.46094 V 390.1543 l 78.67578,45.42382 V 253.88281 Z" />
<path
 id="path1376"
 style="opacity:1;fill:#1a5fb4;fill-opacity:1;stroke-width:7.55906"
 d="m 853.82031,299.30859 v 90.84571 l 157.35159,90.84765 v -90.84961 z" />
<path
 id="path1378"
 style="opacity:1;fill:#26a269;fill-opacity:1;stroke-width:7.55906"
 d="m 853.82031,390.1543 -78.67578,45.42382 157.35156,90.84571 78.67581,-45.42188 z" />
<path
 id="path1380"
 style="opacity:1;fill:#26a269;fill-opacity:1;stroke-width:7.55906"
 d="m 853.82031,390.1543 -157.35156,90.84765 78.67578,45.42188 157.35156,-90.84571 z" />
</g>
<g
 id="g1402"
 transform="matrix(0.9532793,0,0,0.9532793,686.07079,-198.72431)">
<path
 id="path1384"
 style="opacity:1;fill:#8ff0a4;fill-opacity:1;stroke-width:7.55906"
 d="m 853.82031,390.1543 -157.35156,90.84765 157.35156,90.84571 157.35159,-90.84571 z" />
<path
 id="path1386"
 style="opacity:1;fill:#f9f06b;fill-opacity:1;stroke-width:7.55906"
 d="m 853.82031,208.46094 -157.35156,90.8457 V 481.00195 L 853.82031,390.1543 Z" />
<path
 id="path1388"
 style="opacity:1;fill:#99c1f1;fill-opacity:1;stroke-width:7.55906"
 d="M 853.82031,208.46094 V 390.1543 l 157.35159,90.84765 V 299.30664 Z" />
<path
 id="path1390"
 style="opacity:1;fill:#e5a50a;fill-opacity:1;stroke-width:7.55906"
 d="m 853.82031,208.46094 -78.67578,45.42187 v 181.69531 l 78.67578,-45.42382 z" />
<path
 id="path1392"
 style="opacity:1;fill:#e5a50a;fill-opacity:1;stroke-width:7.55906"
 d="M 853.82031,299.30859 696.46875,390.1543 v 90.84765 L 853.82031,390.1543 Z" />
<path
 id="path1394"
 style="opacity:1;fill:#1a5fb4;fill-opacity:1;stroke-width:7.55906"
 d="M 853.82031,208.46094 V 390.1543 l 78.67578,45.42382 V 253.88281 Z" />
<path
 id="path1396"
 style="opacity:1;fill:#1a5fb4;fill-opacity:1;stroke-width:7.55906"
 d="m 853.82031,299.30859 v 90.84571 l 157.35159,90.84765 v -90.84961 z" />
<path
 id="path1398"
 style="opacity:1;fill:#26a269;fill-opacity:1;stroke-width:7.55906"
 d="m 853.82031,390.1543 -78.67578,45.42382 157.35156,90.84571 78.67581,-45.42188 z" />
<path
 id="path1400"
 style="opacity:1;fill:#26a269;fill-opacity:1;stroke-width:7.55906"
 d="m 853.82031,390.1543 -157.35156,90.84765 78.67578,45.42188 157.35156,-90.84571 z" />
</g>
<g
 id="g1422"
 transform="matrix(0.9532793,0,0,0.9532793,986.0708,-198.72524)">
<path
 id="path1404"
 style="opacity:1;fill:#8ff0a4;fill-opacity:1;stroke-width:7.55906"
 d="m 853.82031,390.1543 -157.35156,90.84765 157.35156,90.84571 157.35159,-90.84571 z" />
<path
 id="path1406"
 style="opacity:1;fill:#f9f06b;fill-opacity:1;stroke-width:7.55906"
 d="m 853.82031,208.46094 -157.35156,90.8457 V 481.00195 L 853.82031,390.1543 Z" />
<path
 id="path1408"
 style="opacity:1;fill:#99c1f1;fill-opacity:1;stroke-width:7.55906"
 d="M 853.82031,208.46094 V 390.1543 l 157.35159,90.84765 V 299.30664 Z" />
<path
 id="path1410"
 style="opacity:1;fill:#e5a50a;fill-opacity:1;stroke-width:7.55906"
 d="m 853.82031,208.46094 -78.67578,45.42187 v 181.69531 l 78.67578,-45.42382 z" />
<path
 id="path1412"
 style="opacity:1;fill:#e5a50a;fill-opacity:1;stroke-width:7.55906"
 d="M 853.82031,299.30859 696.46875,390.1543 v 90.84765 L 853.82031,390.1543 Z" />
<path
 id="path1414"
 style="opacity:1;fill:#1a5fb4;fill-opacity:1;stroke-width:7.55906"
 d="M 853.82031,208.46094 V 390.1543 l 78.67578,45.42382 V 253.88281 Z" />
<path
 id="path1416"
 style="opacity:1;fill:#1a5fb4;fill-opacity:1;stroke-width:7.55906"
 d="m 853.82031,299.30859 v 90.84571 l 157.35159,90.84765 v -90.84961 z" />
<path
 id="path1418"
 style="opacity:1;fill:#26a269;fill-opacity:1;stroke-width:7.55906"
 d="m 853.82031,390.1543 -78.67578,45.42382 157.35156,90.84571 78.67581,-45.42188 z" />
<path
 id="path1420"
 style="opacity:1;fill:#26a269;fill-opacity:1;stroke-width:7.55906"
 d="m 853.82031,390.1543 -157.35156,90.84765 78.67578,45.42188 157.35156,-90.84571 z" />
</g>
<g
 id="g1462"
 transform="matrix(0.9532793,0,0,0.9532793,-663.92924,61.084339)">
<path
 id="path1444"
 style="opacity:1;fill:#8ff0a4;fill-opacity:1;stroke-width:7.55906"
 d="m 853.82031,390.1543 -157.35156,90.84765 157.35156,90.84571 157.35159,-90.84571 z" />
<path
 id="path1446"
 style="opacity:1;fill:#f9f06b;fill-opacity:1;stroke-width:7.55906"
 d="m 853.82031,208.46094 -157.35156,90.8457 V 481.00195 L 853.82031,390.1543 Z" />
<path
 id="path1448"
 style="opacity:1;fill:#99c1f1;fill-opacity:1;stroke-width:7.55906"
 d="M 853.82031,208.46094 V 390.1543 l 157.35159,90.84765 V 299.30664 Z" />
<path
 id="path1450"
 style="opacity:1;fill:#e5a50a;fill-opacity:1;stroke-width:7.55906"
 d="m 853.82031,208.46094 -78.67578,45.42187 v 181.69531 l 78.67578,-45.42382 z" />
<path
 id="path1452"
 style="opacity:1;fill:#e5a50a;fill-opacity:1;stroke-width:7.55906"
 d="M 853.82031,299.30859 696.46875,390.1543 v 90.84765 L 853.82031,390.1543 Z" />
<path
 id="path1454"
 style="opacity:1;fill:#1a5fb4;fill-opacity:1;stroke-width:7.55906"
 d="M 853.82031,208.46094 V 390.1543 l 78.67578,45.42382 V 253.88281 Z" />
<path
 id="path1456"
 style="opacity:1;fill:#1a5fb4;fill-opacity:1;stroke-width:7.55906"
 d="m 853.82031,299.30859 v 90.84571 l 157.35159,90.84765 v -90.84961 z" />
<path
 id="path1458"
 style="opacity:1;fill:#26a269;fill-opacity:1;stroke-width:7.55906"
 d="m 853.82031,390.1543 -78.67578,45.42382 157.35156,90.84571 78.67581,-45.42188 z" />
<path
 id="path1460"
 style="opacity:1;fill:#26a269;fill-opacity:1;stroke-width:7.55906"
 d="m 853.82031,390.1543 -157.35156,90.84765 78.67578,45.42188 157.35156,-90.84571 z" />
</g>
<g
 id="g1482"
 transform="matrix(0.9532793,0,0,0.9532793,-363.92924,61.083409)">
<path
 id="path1464"
 style="opacity:1;fill:#8ff0a4;fill-opacity:1;stroke-width:7.55906"
 d="m 853.82031,390.1543 -157.35156,90.84765 157.35156,90.84571 157.35159,-90.84571 z" />
<path
 id="path1466"
 style="opacity:1;fill:#f9f06b;fill-opacity:1;stroke-width:7.55906"
 d="m 853.82031,208.46094 -157.35156,90.8457 V 481.00195 L 853.82031,390.1543 Z" />
<path
 id="path1468"
 style="opacity:1;fill:#99c1f1;fill-opacity:1;stroke-width:7.55906"
 d="M 853.82031,208.46094 V 390.1543 l 157.35159,90.84765 V 299.30664 Z" />
<path
 id="path1470"
 style="opacity:1;fill:#e5a50a;fill-opacity:1;stroke-width:7.55906"
 d="m 853.82031,208.46094 -78.67578,45.42187 v 181.69531 l 78.67578,-45.42382 z" />
<path
 id="path1472"
 style="opacity:1;fill:#e5a50a;fill-opacity:1;stroke-width:7.55906"
 d="M 853.82031,299.30859 696.46875,390.1543 v 90.84765 L 853.82031,390.1543 Z" />
<path
 id="path1474"
 style="opacity:1;fill:#1a5fb4;fill-opacity:1;stroke-width:7.55906"
 d="M 853.82031,208.46094 V 390.1543 l 78.67578,45.42382 V 253.88281 Z" />
<path
 id="path1476"
 style="opacity:1;fill:#1a5fb4;fill-opacity:1;stroke-width:7.55906"
 d="m 853.82031,299.30859 v 90.84571 l 157.35159,90.84765 v -90.84961 z" />
<path
 id="path1478"
 style="opacity:1;fill:#26a269;fill-opacity:1;stroke-width:7.55906"
 d="m 853.82031,390.1543 -78.67578,45.42382 157.35156,90.84571 78.67581,-45.42188 z" />
<path
 id="path1480"
 style="opacity:1;fill:#26a269;fill-opacity:1;stroke-width:7.55906"
 d="m 853.82031,390.1543 -157.35156,90.84765 78.67578,45.42188 157.35156,-90.84571 z" />
</g>
<g
 id="g1502"
 transform="matrix(0.9532793,0,0,0.9532793,-63.929239,61.082469)">
<path
 id="path1484"
 style="opacity:1;fill:#8ff0a4;fill-opacity:1;stroke-width:7.55906"
 d="m 853.82031,390.1543 -157.35156,90.84765 157.35156,90.84571 157.35159,-90.84571 z" />
<path
 id="path1486"
 style="opacity:1;fill:#f9f06b;fill-opacity:1;stroke-width:7.55906"
 d="m 853.82031,208.46094 -157.35156,90.8457 V 481.00195 L 853.82031,390.1543 Z" />
<path
 id="path1488"
 style="opacity:1;fill:#99c1f1;fill-opacity:1;stroke-width:7.55906"
 d="M 853.82031,208.46094 V 390.1543 l 157.35159,90.84765 V 299.30664 Z" />
<path
 id="path1490"
 style="opacity:1;fill:#e5a50a;fill-opacity:1;stroke-width:7.55906"
 d="m 853.82031,208.46094 -78.67578,45.42187 v 181.69531 l 78.67578,-45.42382 z" />
<path
 id="path1492"
 style="opacity:1;fill:#e5a50a;fill-opacity:1;stroke-width:7.55906"
 d="M 853.82031,299.30859 696.46875,390.1543 v 90.84765 L 853.82031,390.1543 Z" />
<path
 id="path1494"
 style="opacity:1;fill:#1a5fb4;fill-opacity:1;stroke-width:7.55906"
 d="M 853.82031,208.46094 V 390.1543 l 78.67578,45.42382 V 253.88281 Z" />
<path
 id="path1496"
 style="opacity:1;fill:#1a5fb4;fill-opacity:1;stroke-width:7.55906"
 d="m 853.82031,299.30859 v 90.84571 l 157.35159,90.84765 v -90.84961 z" />
<path
 id="path1498"
 style="opacity:1;fill:#26a269;fill-opacity:1;stroke-width:7.55906"
 d="m 853.82031,390.1543 -78.67578,45.42382 157.35156,90.84571 78.67581,-45.42188 z" />
<path
 id="path1500"
 style="opacity:1;fill:#26a269;fill-opacity:1;stroke-width:7.55906"
 d="m 853.82031,390.1543 -157.35156,90.84765 78.67578,45.42188 157.35156,-90.84571 z" />
</g>
<g
 id="g1522"
 transform="matrix(0.9532793,0,0,0.9532793,236.07076,61.081539)">
<path
 id="path1504"
 style="opacity:1;fill:#8ff0a4;fill-opacity:1;stroke-width:7.55906"
 d="m 853.82031,390.1543 -157.35156,90.84765 157.35156,90.84571 157.35159,-90.84571 z" />
<path
 id="path1506"
 style="opacity:1;fill:#f9f06b;fill-opacity:1;stroke-width:7.55906"
 d="m 853.82031,208.46094 -157.35156,90.8457 V 481.00195 L 853.82031,390.1543 Z" />
<path
 id="path1508"
 style="opacity:1;fill:#99c1f1;fill-opacity:1;stroke-width:7.55906"
 d="M 853.82031,208.46094 V 390.1543 l 157.35159,90.84765 V 299.30664 Z" />
<path
 id="path1510"
 style="opacity:1;fill:#e5a50a;fill-opacity:1;stroke-width:7.55906"
 d="m 853.82031,208.46094 -78.67578,45.42187 v 181.69531 l 78.67578,-45.42382 z" />
<path
 id="path1512"
 style="opacity:1;fill:#e5a50a;fill-opacity:1;stroke-width:7.55906"
 d="M 853.82031,299.30859 696.46875,390.1543 v 90.84765 L 853.82031,390.1543 Z" />
<path
 id="path1514"
 style="opacity:1;fill:#1a5fb4;fill-opacity:1;stroke-width:7.55906"
 d="M 853.82031,208.46094 V 390.1543 l 78.67578,45.42382 V 253.88281 Z" />
<path
 id="path1516"
 style="opacity:1;fill:#1a5fb4;fill-opacity:1;stroke-width:7.55906"
 d="m 853.82031,299.30859 v 90.84571 l 157.35159,90.84765 v -90.84961 z" />
<path
 id="path1518"
 style="opacity:1;fill:#26a269;fill-opacity:1;stroke-width:7.55906"
 d="m 853.82031,390.1543 -78.67578,45.42382 157.35156,90.84571 78.67581,-45.42188 z" />
<path
 id="path1520"
 style="opacity:1;fill:#26a269;fill-opacity:1;stroke-width:7.55906"
 d="m 853.82031,390.1543 -157.35156,90.84765 78.67578,45.42188 157.35156,-90.84571 z" />
</g>
<g
 id="g1542"
 transform="matrix(0.9532793,0,0,0.9532793,536.07076,61.082459)">
<path
 id="path1524"
 style="opacity:1;fill:#8ff0a4;fill-opacity:1;stroke-width:7.55906"
 d="m 853.82031,390.1543 -157.35156,90.84765 157.35156,90.84571 157.35159,-90.84571 z" />
<path
 id="path1526"
 style="opacity:1;fill:#f9f06b;fill-opacity:1;stroke-width:7.55906"
 d="m 853.82031,208.46094 -157.35156,90.8457 V 481.00195 L 853.82031,390.1543 Z" />
<path
 id="path1528"
 style="opacity:1;fill:#99c1f1;fill-opacity:1;stroke-width:7.55906"
 d="M 853.82031,208.46094 V 390.1543 l 157.35159,90.84765 V 299.30664 Z" />
<path
 id="path1530"
 style="opacity:1;fill:#e5a50a;fill-opacity:1;stroke-width:7.55906"
 d="m 853.82031,208.46094 -78.67578,45.42187 v 181.69531 l 78.67578,-45.42382 z" />
<path
 id="path1532"
 style="opacity:1;fill:#e5a50a;fill-opacity:1;stroke-width:7.55906"
 d="M 853.82031,299.30859 696.46875,390.1543 v 90.84765 L 853.82031,390.1543 Z" />
<path
 id="path1534"
 style="opacity:1;fill:#1a5fb4;fill-opacity:1;stroke-width:7.55906"
 d="M 853.82031,208.46094 V 390.1543 l 78.67578,45.42382 V 253.88281 Z" />
<path
 id="path1536"
 style="opacity:1;fill:#1a5fb4;fill-opacity:1;stroke-width:7.55906"
 d="m 853.82031,299.30859 v 90.84571 l 157.35159,90.84765 v -90.84961 z" />
<path
 id="path1538"
 style="opacity:1;fill:#26a269;fill-opacity:1;stroke-width:7.55906"
 d="m 853.82031,390.1543 -78.67578,45.42382 157.35156,90.84571 78.67581,-45.42188 z" />
<path
 id="path1540"
 style="opacity:1;fill:#26a269;fill-opacity:1;stroke-width:7.55906"
 d="m 853.82031,390.1543 -157.35156,90.84765 78.67578,45.42188 157.35156,-90.84571 z" />
</g>
<g
 id="g1562"
 transform="matrix(0.9532793,0,0,0.9532793,836.07079,61.081529)">
<path
 id="path1544"
 style="opacity:1;fill:#8ff0a4;fill-opacity:1;stroke-width:7.55906"
 d="m 853.82031,390.1543 -157.35156,90.84765 157.35156,90.84571 157.35159,-90.84571 z" />
<path
 id="path1546"
 style="opacity:1;fill:#f9f06b;fill-opacity:1;stroke-width:7.55906"
 d="m 853.82031,208.46094 -157.35156,90.8457 V 481.00195 L 853.82031,390.1543 Z" />
<path
 id="path1548"
 style="opacity:1;fill:#99c1f1;fill-opacity:1;stroke-width:7.55906"
 d="M 853.82031,208.46094 V 390.1543 l 157.35159,90.84765 V 299.30664 Z" />
<path
 id="path1550"
 style="opacity:1;fill:#e5a50a;fill-opacity:1;stroke-width:7.55906"
 d="m 853.82031,208.46094 -78.67578,45.42187 v 181.69531 l 78.67578,-45.42382 z" />
<path
 id="path1552"
 style="opacity:1;fill:#e5a50a;fill-opacity:1;stroke-width:7.55906"
 d="M 853.82031,299.30859 696.46875,390.1543 v 90.84765 L 853.82031,390.1543 Z" />
<path
 id="path1554"
 style="opacity:1;fill:#1a5fb4;fill-opacity:1;stroke-width:7.55906"
 d="M 853.82031,208.46094 V 390.1543 l 78.67578,45.42382 V 253.88281 Z" />
<path
 id="path1556"
 style="opacity:1;fill:#1a5fb4;fill-opacity:1;stroke-width:7.55906"
 d="m 853.82031,299.30859 v 90.84571 l 157.35159,90.84765 v -90.84961 z" />
<path
 id="path1558"
 style="opacity:1;fill:#26a269;fill-opacity:1;stroke-width:7.55906"
 d="m 853.82031,390.1543 -78.67578,45.42382 157.35156,90.84571 78.67581,-45.42188 z" />
<path
 id="path1560"
 style="opacity:1;fill:#26a269;fill-opacity:1;stroke-width:7.55906"
 d="m 853.82031,390.1543 -157.35156,90.84765 78.67578,45.42188 157.35156,-90.84571 z" />
</g>
<g
 id="g1582"
 transform="matrix(0.9532793,0,0,0.9532793,1136.0708,61.080599)">
<path
 id="path1564"
 style="opacity:1;fill:#8ff0a4;fill-opacity:1;stroke-width:7.55906"
 d="m 853.82031,390.1543 -157.35156,90.84765 157.35156,90.84571 157.35159,-90.84571 z" />
<path
 id="path1566"
 style="opacity:1;fill:#f9f06b;fill-opacity:1;stroke-width:7.55906"
 d="m 853.82031,208.46094 -157.35156,90.8457 V 481.00195 L 853.82031,390.1543 Z" />
<path
 id="path1568"
 style="opacity:1;fill:#99c1f1;fill-opacity:1;stroke-width:7.55906"
 d="M 853.82031,208.46094 V 390.1543 l 157.35159,90.84765 V 299.30664 Z" />
<path
 id="path1570"
 style="opacity:1;fill:#e5a50a;fill-opacity:1;stroke-width:7.55906"
 d="m 853.82031,208.46094 -78.67578,45.42187 v 181.69531 l 78.67578,-45.42382 z" />
<path
 id="path1572"
 style="opacity:1;fill:#e5a50a;fill-opacity:1;stroke-width:7.55906"
 d="M 853.82031,299.30859 696.46875,390.1543 v 90.84765 L 853.82031,390.1543 Z" />
<path
 id="path1574"
 style="opacity:1;fill:#1a5fb4;fill-opacity:1;stroke-width:7.55906"
 d="M 853.82031,208.46094 V 390.1543 l 78.67578,45.42382 V 253.88281 Z" />
<path
 id="path1576"
 style="opacity:1;fill:#1a5fb4;fill-opacity:1;stroke-width:7.55906"
 d="m 853.82031,299.30859 v 90.84571 l 157.35159,90.84765 v -90.84961 z" />
<path
 id="path1578"
 style="opacity:1;fill:#26a269;fill-opacity:1;stroke-width:7.55906"
 d="m 853.82031,390.1543 -78.67578,45.42382 157.35156,90.84571 78.67581,-45.42188 z" />
<path
 id="path1580"
 style="opacity:1;fill:#26a269;fill-opacity:1;stroke-width:7.55906"
 d="m 853.82031,390.1543 -157.35156,90.84765 78.67578,45.42188 157.35156,-90.84571 z" />
</g>
<g
 id="g1622"
 transform="matrix(0.9532793,0,0,0.9532793,-813.92924,320.89297)">
<path
 id="path1604"
 style="opacity:1;fill:#8ff0a4;fill-opacity:1;stroke-width:7.55906"
 d="m 853.82031,390.1543 -157.35156,90.84765 157.35156,90.84571 157.35159,-90.84571 z" />
<path
 id="path1606"
 style="opacity:1;fill:#f9f06b;fill-opacity:1;stroke-width:7.55906"
 d="m 853.82031,208.46094 -157.35156,90.8457 V 481.00195 L 853.82031,390.1543 Z" />
<path
 id="path1608"
 style="opacity:1;fill:#99c1f1;fill-opacity:1;stroke-width:7.55906"
 d="M 853.82031,208.46094 V 390.1543 l 157.35159,90.84765 V 299.30664 Z" />
<path
 id="path1610"
 style="opacity:1;fill:#e5a50a;fill-opacity:1;stroke-width:7.55906"
 d="m 853.82031,208.46094 -78.67578,45.42187 v 181.69531 l 78.67578,-45.42382 z" />
<path
 id="path1612"
 style="opacity:1;fill:#e5a50a;fill-opacity:1;stroke-width:7.55906"
 d="M 853.82031,299.30859 696.46875,390.1543 v 90.84765 L 853.82031,390.1543 Z" />
<path
 id="path1614"
 style="opacity:1;fill:#1a5fb4;fill-opacity:1;stroke-width:7.55906"
 d="M 853.82031,208.46094 V 390.1543 l 78.67578,45.42382 V 253.88281 Z" />
<path
 id="path1616"
 style="opacity:1;fill:#1a5fb4;fill-opacity:1;stroke-width:7.55906"
 d="m 853.82031,299.30859 v 90.84571 l 157.35159,90.84765 v -90.84961 z" />
<path
 id="path1618"
 style="opacity:1;fill:#26a269;fill-opacity:1;stroke-width:7.55906"
 d="m 853.82031,390.1543 -78.67578,45.42382 157.35156,90.84571 78.67581,-45.42188 z" />
<path
 id="path1620"
 style="opacity:1;fill:#26a269;fill-opacity:1;stroke-width:7.55906"
 d="m 853.82031,390.1543 -157.35156,90.84765 78.67578,45.42188 157.35156,-90.84571 z" />
</g>
<g
 id="g1642"
 transform="matrix(0.9532793,0,0,0.9532793,-513.92924,320.89204)">
<path
 id="path1624"
 style="opacity:1;fill:#8ff0a4;fill-opacity:1;stroke-width:7.55906"
 d="m 853.82031,390.1543 -157.35156,90.84765 157.35156,90.84571 157.35159,-90.84571 z" />
<path
 id="path1626"
 style="opacity:1;fill:#f9f06b;fill-opacity:1;stroke-width:7.55906"
 d="m 853.82031,208.46094 -157.35156,90.8457 V 481.00195 L 853.82031,390.1543 Z" />
<path
 id="path1628"
 style="opacity:1;fill:#99c1f1;fill-opacity:1;stroke-width:7.55906"
 d="M 853.82031,208.46094 V 390.1543 l 157.35159,90.84765 V 299.30664 Z" />
<path
 id="path1630"
 style="opacity:1;fill:#e5a50a;fill-opacity:1;stroke-width:7.55906"
 d="m 853.82031,208.46094 -78.67578,45.42187 v 181.69531 l 78.67578,-45.42382 z" />
<path
 id="path1632"
 style="opacity:1;fill:#e5a50a;fill-opacity:1;stroke-width:7.55906"
 d="M 853.82031,299.30859 696.46875,390.1543 v 90.84765 L 853.82031,390.1543 Z" />
<path
 id="path1634"
 style="opacity:1;fill:#1a5fb4;fill-opacity:1;stroke-width:7.55906"
 d="M 853.82031,208.46094 V 390.1543 l 78.67578,45.42382 V 253.88281 Z" />
<path
 id="path1636"
 style="opacity:1;fill:#1a5fb4;fill-opacity:1;stroke-width:7.55906"
 d="m 853.82031,299.30859 v 90.84571 l 157.35159,90.84765 v -90.84961 z" />
<path
 id="path1638"
 style="opacity:1;fill:#26a269;fill-opacity:1;stroke-width:7.55906"
 d="m 853.82031,390.1543 -78.67578,45.42382 157.35156,90.84571 78.67581,-45.42188 z" />
<path
 id="path1640"
 style="opacity:1;fill:#26a269;fill-opacity:1;stroke-width:7.55906"
 d="m 853.82031,390.1543 -157.35156,90.84765 78.67578,45.42188 157.35156,-90.84571 z" />
</g>
<g
 id="g1662"
 transform="matrix(0.9532793,0,0,0.9532793,-213.92924,320.8911)">
<path
 id="path1644"
 style="opacity:1;fill:#8ff0a4;fill-opacity:1;stroke-width:7.55906"
 d="m 853.82031,390.1543 -157.35156,90.84765 157.35156,90.84571 157.35159,-90.84571 z" />
<path
 id="path1646"
 style="opacity:1;fill:#f9f06b;fill-opacity:1;stroke-width:7.55906"
 d="m 853.82031,208.46094 -157.35156,90.8457 V 481.00195 L 853.82031,390.1543 Z" />
<path
 id="path1648"
 style="opacity:1;fill:#99c1f1;fill-opacity:1;stroke-width:7.55906"
 d="M 853.82031,208.46094 V 390.1543 l 157.35159,90.84765 V 299.30664 Z" />
<path
 id="path1650"
 style="opacity:1;fill:#e5a50a;fill-opacity:1;stroke-width:7.55906"
 d="m 853.82031,208.46094 -78.67578,45.42187 v 181.69531 l 78.67578,-45.42382 z" />
<path
 id="path1652"
 style="opacity:1;fill:#e5a50a;fill-opacity:1;stroke-width:7.55906"
 d="M 853.82031,299.30859 696.46875,390.1543 v 90.84765 L 853.82031,390.1543 Z" />
<path
 id="path1654"
 style="opacity:1;fill:#1a5fb4;fill-opacity:1;stroke-width:7.55906"
 d="M 853.82031,208.46094 V 390.1543 l 78.67578,45.42382 V 253.88281 Z" />
<path
 id="path1656"
 style="opacity:1;fill:#1a5fb4;fill-opacity:1;stroke-width:7.55906"
 d="m 853.82031,299.30859 v 90.84571 l 157.35159,90.84765 v -90.84961 z" />
<path
 id="path1658"
 style="opacity:1;fill:#26a269;fill-opacity:1;stroke-width:7.55906"
 d="m 853.82031,390.1543 -78.67578,45.42382 157.35156,90.84571 78.67581,-45.42188 z" />
<path
 id="path1660"
 style="opacity:1;fill:#26a269;fill-opacity:1;stroke-width:7.55906"
 d="m 853.82031,390.1543 -157.35156,90.84765 78.67578,45.42188 157.35156,-90.84571 z" />
</g>
<g
 id="g1682"
 transform="matrix(0.9532793,0,0,0.9532793,86.07076,320.89017)">
<path
 id="path1664"
 style="opacity:1;fill:#8ff0a4;fill-opacity:1;stroke-width:7.55906"
 d="m 853.82031,390.1543 -157.35156,90.84765 157.35156,90.84571 157.35159,-90.84571 z" />
<path
 id="path1666"
 style="opacity:1;fill:#f9f06b;fill-opacity:1;stroke-width:7.55906"
 d="m 853.82031,208.46094 -157.35156,90.8457 V 481.00195 L 853.82031,390.1543 Z" />
<path
 id="path1668"
 style="opacity:1;fill:#99c1f1;fill-opacity:1;stroke-width:7.55906"
 d="M 853.82031,208.46094 V 390.1543 l 157.35159,90.84765 V 299.30664 Z" />
<path
 id="path1670"
 style="opacity:1;fill:#e5a50a;fill-opacity:1;stroke-width:7.55906"
 d="m 853.82031,208.46094 -78.67578,45.42187 v 181.69531 l 78.67578,-45.42382 z" />
<path
 id="path1672"
 style="opacity:1;fill:#e5a50a;fill-opacity:1;stroke-width:7.55906"
 d="M 853.82031,299.30859 696.46875,390.1543 v 90.84765 L 853.82031,390.1543 Z" />
<path
 id="path1674"
 style="opacity:1;fill:#1a5fb4;fill-opacity:1;stroke-width:7.55906"
 d="M 853.82031,208.46094 V 390.1543 l 78.67578,45.42382 V 253.88281 Z" />
<path
 id="path1676"
 style="opacity:1;fill:#1a5fb4;fill-opacity:1;stroke-width:7.55906"
 d="m 853.82031,299.30859 v 90.84571 l 157.35159,90.84765 v -90.84961 z" />
<path
 id="path1678"
 style="opacity:1;fill:#26a269;fill-opacity:1;stroke-width:7.55906"
 d="m 853.82031,390.1543 -78.67578,45.42382 157.35156,90.84571 78.67581,-45.42188 z" />
<path
 id="path1680"
 style="opacity:1;fill:#26a269;fill-opacity:1;stroke-width:7.55906"
 d="m 853.82031,390.1543 -157.35156,90.84765 78.67578,45.42188 157.35156,-90.84571 z" />
</g>
<g
 id="g1702"
 transform="matrix(0.9532793,0,0,0.9532793,386.07076,320.89109)">
<path
 id="path1684"
 style="opacity:1;fill:#8ff0a4;fill-opacity:1;stroke-width:7.55906"
 d="m 853.82031,390.1543 -157.35156,90.84765 157.35156,90.84571 157.35159,-90.84571 z" />
<path
 id="path1686"
 style="opacity:1;fill:#f9f06b;fill-opacity:1;stroke-width:7.55906"
 d="m 853.82031,208.46094 -157.35156,90.8457 V 481.00195 L 853.82031,390.1543 Z" />
<path
 id="path1688"
 style="opacity:1;fill:#99c1f1;fill-opacity:1;stroke-width:7.55906"
 d="M 853.82031,208.46094 V 390.1543 l 157.35159,90.84765 V 299.30664 Z" />
<path
 id="path1690"
 style="opacity:1;fill:#e5a50a;fill-opacity:1;stroke-width:7.55906"
 d="m 853.82031,208.46094 -78.67578,45.42187 v 181.69531 l 78.67578,-45.42382 z" />
<path
 id="path1692"
 style="opacity:1;fill:#e5a50a;fill-opacity:1;stroke-width:7.55906"
 d="M 853.82031,299.30859 696.46875,390.1543 v 90.84765 L 853.82031,390.1543 Z" />
<path
 id="path1694"
 style="opacity:1;fill:#1a5fb4;fill-opacity:1;stroke-width:7.55906"
 d="M 853.82031,208.46094 V 390.1543 l 78.67578,45.42382 V 253.88281 Z" />
<path
 id="path1696"
 style="opacity:1;fill:#1a5fb4;fill-opacity:1;stroke-width:7.55906"
 d="m 853.82031,299.30859 v 90.84571 l 157.35159,90.84765 v -90.84961 z" />
<path
 id="path1698"
 style="opacity:1;fill:#26a269;fill-opacity:1;stroke-width:7.55906"
 d="m 853.82031,390.1543 -78.67578,45.42382 157.35156,90.84571 78.67581,-45.42188 z" />
<path
 id="path1700"
 style="opacity:1;fill:#26a269;fill-opacity:1;stroke-width:7.55906"
 d="m 853.82031,390.1543 -157.35156,90.84765 78.67578,45.42188 157.35156,-90.84571 z" />
</g>
<g
 id="g1722"
 transform="matrix(0.9532793,0,0,0.9532793,686.07079,320.89016)">
<path
 id="path1704"
 style="opacity:1;fill:#8ff0a4;fill-opacity:1;stroke-width:7.55906"
 d="m 853.82031,390.1543 -157.35156,90.84765 157.35156,90.84571 157.35159,-90.84571 z" />
<path
 id="path1706"
 style="opacity:1;fill:#f9f06b;fill-opacity:1;stroke-width:7.55906"
 d="m 853.82031,208.46094 -157.35156,90.8457 V 481.00195 L 853.82031,390.1543 Z" />
<path
 id="path1708"
 style="opacity:1;fill:#99c1f1;fill-opacity:1;stroke-width:7.55906"
 d="M 853.82031,208.46094 V 390.1543 l 157.35159,90.84765 V 299.30664 Z" />
<path
 id="path1710"
 style="opacity:1;fill:#e5a50a;fill-opacity:1;stroke-width:7.55906"
 d="m 853.82031,208.46094 -78.67578,45.42187 v 181.69531 l 78.67578,-45.42382 z" />
<path
 id="path1712"
 style="opacity:1;fill:#e5a50a;fill-opacity:1;stroke-width:7.55906"
 d="M 853.82031,299.30859 696.46875,390.1543 v 90.84765 L 853.82031,390.1543 Z" />
<path
 id="path1714"
 style="opacity:1;fill:#1a5fb4;fill-opacity:1;stroke-width:7.55906"
 d="M 853.82031,208.46094 V 390.1543 l 78.67578,45.42382 V 253.88281 Z" />
<path
 id="path1716"
 style="opacity:1;fill:#1a5fb4;fill-opacity:1;stroke-width:7.55906"
 d="m 853.82031,299.30859 v 90.84571 l 157.35159,90.84765 v -90.84961 z" />
<path
 id="path1718"
 style="opacity:1;fill:#26a269;fill-opacity:1;stroke-width:7.55906"
 d="m 853.82031,390.1543 -78.67578,45.42382 157.35156,90.84571 78.67581,-45.42188 z" />
<path
 id="path1720"
 style="opacity:1;fill:#26a269;fill-opacity:1;stroke-width:7.55906"
 d="m 853.82031,390.1543 -157.35156,90.84765 78.67578,45.42188 157.35156,-90.84571 z" />
</g>
<g
 id="g1742"
 transform="matrix(0.9532793,0,0,0.9532793,986.0708,320.88923)">
<path
 id="path1724"
 style="opacity:1;fill:#8ff0a4;fill-opacity:1;stroke-width:7.55906"
 d="m 853.82031,390.1543 -157.35156,90.84765 157.35156,90.84571 157.35159,-90.84571 z" />
<path
 id="path1726"
 style="opacity:1;fill:#f9f06b;fill-opacity:1;stroke-width:7.55906"
 d="m 853.82031,208.46094 -157.35156,90.8457 V 481.00195 L 853.82031,390.1543 Z" />
<path
 id="path1728"
 style="opacity:1;fill:#99c1f1;fill-opacity:1;stroke-width:7.55906"
 d="M 853.82031,208.46094 V 390.1543 l 157.35159,90.84765 V 299.30664 Z" />
<path
 id="path1730"
 style="opacity:1;fill:#e5a50a;fill-opacity:1;stroke-width:7.55906"
 d="m 853.82031,208.46094 -78.67578,45.42187 v 181.69531 l 78.67578,-45.42382 z" />
<path
 id="path1732"
 style="opacity:1;fill:#e5a50a;fill-opacity:1;stroke-width:7.55906"
 d="M 853.82031,299.30859 696.46875,390.1543 v 90.84765 L 853.82031,390.1543 Z" />
<path
 id="path1734"
 style="opacity:1;fill:#1a5fb4;fill-opacity:1;stroke-width:7.55906"
 d="M 853.82031,208.46094 V 390.1543 l 78.67578,45.42382 V 253.88281 Z" />
<path
 id="path1736"
 style="opacity:1;fill:#1a5fb4;fill-opacity:1;stroke-width:7.55906"
 d="m 853.82031,299.30859 v 90.84571 l 157.35159,90.84765 v -90.84961 z" />
<path
 id="path1738"
 style="opacity:1;fill:#26a269;fill-opacity:1;stroke-width:7.55906"
 d="m 853.82031,390.1543 -78.67578,45.42382 157.35156,90.84571 78.67581,-45.42188 z" />
<path
 id="path1740"
 style="opacity:1;fill:#26a269;fill-opacity:1;stroke-width:7.55906"
 d="m 853.82031,390.1543 -157.35156,90.84765 78.67578,45.42188 157.35156,-90.84571 z" />
</g>
<g
 id="g1782"
 transform="matrix(0.9532793,0,0,0.9532793,-663.92924,580.70159)">
<path
 id="path1764"
 style="opacity:1;fill:#8ff0a4;fill-opacity:1;stroke-width:7.55906"
 d="m 853.82031,390.1543 -157.35156,90.84765 157.35156,90.84571 157.35159,-90.84571 z" />
<path
 id="path1766"
 style="opacity:1;fill:#f9f06b;fill-opacity:1;stroke-width:7.55906"
 d="m 853.82031,208.46094 -157.35156,90.8457 V 481.00195 L 853.82031,390.1543 Z" />
<path
 id="path1768"
 style="opacity:1;fill:#99c1f1;fill-opacity:1;stroke-width:7.55906"
 d="M 853.82031,208.46094 V 390.1543 l 157.35159,90.84765 V 299.30664 Z" />
<path
 id="path1770"
 style="opacity:1;fill:#e5a50a;fill-opacity:1;stroke-width:7.55906"
 d="m 853.82031,208.46094 -78.67578,45.42187 v 181.69531 l 78.67578,-45.42382 z" />
<path
 id="path1772"
 style="opacity:1;fill:#e5a50a;fill-opacity:1;stroke-width:7.55906"
 d="M 853.82031,299.30859 696.46875,390.1543 v 90.84765 L 853.82031,390.1543 Z" />
<path
 id="path1774"
 style="opacity:1;fill:#1a5fb4;fill-opacity:1;stroke-width:7.55906"
 d="M 853.82031,208.46094 V 390.1543 l 78.67578,45.42382 V 253.88281 Z" />
<path
 id="path1776"
 style="opacity:1;fill:#1a5fb4;fill-opacity:1;stroke-width:7.55906"
 d="m 853.82031,299.30859 v 90.84571 l 157.35159,90.84765 v -90.84961 z" />
<path
 id="path1778"
 style="opacity:1;fill:#26a269;fill-opacity:1;stroke-width:7.55906"
 d="m 853.82031,390.1543 -78.67578,45.42382 157.35156,90.84571 78.67581,-45.42188 z" />
<path
 id="path1780"
 style="opacity:1;fill:#26a269;fill-opacity:1;stroke-width:7.55906"
 d="m 853.82031,390.1543 -157.35156,90.84765 78.67578,45.42188 157.35156,-90.84571 z" />
</g>
<g
 id="g1802"
 transform="matrix(0.9532793,0,0,0.9532793,-363.92924,580.70066)">
<path
 id="path1784"
 style="opacity:1;fill:#8ff0a4;fill-opacity:1;stroke-width:7.55906"
 d="m 853.82031,390.1543 -157.35156,90.84765 157.35156,90.84571 157.35159,-90.84571 z" />
<path
 id="path1786"
 style="opacity:1;fill:#f9f06b;fill-opacity:1;stroke-width:7.55906"
 d="m 853.82031,208.46094 -157.35156,90.8457 V 481.00195 L 853.82031,390.1543 Z" />
<path
 id="path1788"
 style="opacity:1;fill:#99c1f1;fill-opacity:1;stroke-width:7.55906"
 d="M 853.82031,208.46094 V 390.1543 l 157.35159,90.84765 V 299.30664 Z" />
<path
 id="path1790"
 style="opacity:1;fill:#e5a50a;fill-opacity:1;stroke-width:7.55906"
 d="m 853.82031,208.46094 -78.67578,45.42187 v 181.69531 l 78.67578,-45.42382 z" />
<path
 id="path1792"
 style="opacity:1;fill:#e5a50a;fill-opacity:1;stroke-width:7.55906"
 d="M 853.82031,299.30859 696.46875,390.1543 v 90.84765 L 853.82031,390.1543 Z" />
<path
 id="path1794"
 style="opacity:1;fill:#1a5fb4;fill-opacity:1;stroke-width:7.55906"
 d="M 853.82031,208.46094 V 390.1543 l 78.67578,45.42382 V 253.88281 Z" />
<path
 id="path1796"
 style="opacity:1;fill:#1a5fb4;fill-opacity:1;stroke-width:7.55906"
 d="m 853.82031,299.30859 v 90.84571 l 157.35159,90.84765 v -90.84961 z" />
<path
 id="path1798"
 style="opacity:1;fill:#26a269;fill-opacity:1;stroke-width:7.55906"
 d="m 853.82031,390.1543 -78.67578,45.42382 157.35156,90.84571 78.67581,-45.42188 z" />
<path
 id="path1800"
 style="opacity:1;fill:#26a269;fill-opacity:1;stroke-width:7.55906"
 d="m 853.82031,390.1543 -157.35156,90.84765 78.67578,45.42188 157.35156,-90.84571 z" />
</g>
<g
 id="g1822"
 transform="matrix(0.9532793,0,0,0.9532793,-63.929239,580.69972)">
<path
 id="path1804"
 style="opacity:1;fill:#8ff0a4;fill-opacity:1;stroke-width:7.55906"
 d="m 853.82031,390.1543 -157.35156,90.84765 157.35156,90.84571 157.35159,-90.84571 z" />
<path
 id="path1806"
 style="opacity:1;fill:#f9f06b;fill-opacity:1;stroke-width:7.55906"
 d="m 853.82031,208.46094 -157.35156,90.8457 V 481.00195 L 853.82031,390.1543 Z" />
<path
 id="path1808"
 style="opacity:1;fill:#99c1f1;fill-opacity:1;stroke-width:7.55906"
 d="M 853.82031,208.46094 V 390.1543 l 157.35159,90.84765 V 299.30664 Z" />
<path
 id="path1810"
 style="opacity:1;fill:#e5a50a;fill-opacity:1;stroke-width:7.55906"
 d="m 853.82031,208.46094 -78.67578,45.42187 v 181.69531 l 78.67578,-45.42382 z" />
<path
 id="path1812"
 style="opacity:1;fill:#e5a50a;fill-opacity:1;stroke-width:7.55906"
 d="M 853.82031,299.30859 696.46875,390.1543 v 90.84765 L 853.82031,390.1543 Z" />
<path
 id="path1814"
 style="opacity:1;fill:#1a5fb4;fill-opacity:1;stroke-width:7.55906"
 d="M 853.82031,208.46094 V 390.1543 l 78.67578,45.42382 V 253.88281 Z" />
<path
 id="path1816"
 style="opacity:1;fill:#1a5fb4;fill-opacity:1;stroke-width:7.55906"
 d="m 853.82031,299.30859 v 90.84571 l 157.35159,90.84765 v -90.84961 z" />
<path
 id="path1818"
 style="opacity:1;fill:#26a269;fill-opacity:1;stroke-width:7.55906"
 d="m 853.82031,390.1543 -78.67578,45.42382 157.35156,90.84571 78.67581,-45.42188 z" />
<path
 id="path1820"
 style="opacity:1;fill:#26a269;fill-opacity:1;stroke-width:7.55906"
 d="m 853.82031,390.1543 -157.35156,90.84765 78.67578,45.42188 157.35156,-90.84571 z" />
</g>
<g
 id="g1842"
 transform="matrix(0.9532793,0,0,0.9532793,236.07076,580.69879)">
<path
 id="path1824"
 style="opacity:1;fill:#8ff0a4;fill-opacity:1;stroke-width:7.55906"
 d="m 853.82031,390.1543 -157.35156,90.84765 157.35156,90.84571 157.35159,-90.84571 z" />
<path
 id="path1826"
 style="opacity:1;fill:#f9f06b;fill-opacity:1;stroke-width:7.55906"
 d="m 853.82031,208.46094 -157.35156,90.8457 V 481.00195 L 853.82031,390.1543 Z" />
<path
 id="path1828"
 style="opacity:1;fill:#99c1f1;fill-opacity:1;stroke-width:7.55906"
 d="M 853.82031,208.46094 V 390.1543 l 157.35159,90.84765 V 299.30664 Z" />
<path
 id="path1830"
 style="opacity:1;fill:#e5a50a;fill-opacity:1;stroke-width:7.55906"
 d="m 853.82031,208.46094 -78.67578,45.42187 v 181.69531 l 78.67578,-45.42382 z" />
<path
 id="path1832"
 style="opacity:1;fill:#e5a50a;fill-opacity:1;stroke-width:7.55906"
 d="M 853.82031,299.30859 696.46875,390.1543 v 90.84765 L 853.82031,390.1543 Z" />
<path
 id="path1834"
 style="opacity:1;fill:#1a5fb4;fill-opacity:1;stroke-width:7.55906"
 d="M 853.82031,208.46094 V 390.1543 l 78.67578,45.42382 V 253.88281 Z" />
<path
 id="path1836"
 style="opacity:1;fill:#1a5fb4;fill-opacity:1;stroke-width:7.55906"
 d="m 853.82031,299.30859 v 90.84571 l 157.35159,90.84765 v -90.84961 z" />
<path
 id="path1838"
 style="opacity:1;fill:#26a269;fill-opacity:1;stroke-width:7.55906"
 d="m 853.82031,390.1543 -78.67578,45.42382 157.35156,90.84571 78.67581,-45.42188 z" />
<path
 id="path1840"
 style="opacity:1;fill:#26a269;fill-opacity:1;stroke-width:7.55906"
 d="m 853.82031,390.1543 -157.35156,90.84765 78.67578,45.42188 157.35156,-90.84571 z" />
</g>
<g
 id="g1862"
 transform="matrix(0.9532793,0,0,0.9532793,536.07076,580.69971)">
<path
 id="path1844"
 style="opacity:1;fill:#8ff0a4;fill-opacity:1;stroke-width:7.55906"
 d="m 853.82031,390.1543 -157.35156,90.84765 157.35156,90.84571 157.35159,-90.84571 z" />
<path
 id="path1846"
 style="opacity:1;fill:#f9f06b;fill-opacity:1;stroke-width:7.55906"
 d="m 853.82031,208.46094 -157.35156,90.8457 V 481.00195 L 853.82031,390.1543 Z" />
<path
 id="path1848"
 style="opacity:1;fill:#99c1f1;fill-opacity:1;stroke-width:7.55906"
 d="M 853.82031,208.46094 V 390.1543 l 157.35159,90.84765 V 299.30664 Z" />
<path
 id="path1850"
 style="opacity:1;fill:#e5a50a;fill-opacity:1;stroke-width:7.55906"
 d="m 853.82031,208.46094 -78.67578,45.42187 v 181.69531 l 78.67578,-45.42382 z" />
<path
 id="path1852"
 style="opacity:1;fill:#e5a50a;fill-opacity:1;stroke-width:7.55906"
 d="M 853.82031,299.30859 696.46875,390.1543 v 90.84765 L 853.82031,390.1543 Z" />
<path
 id="path1854"
 style="opacity:1;fill:#1a5fb4;fill-opacity:1;stroke-width:7.55906"
 d="M 853.82031,208.46094 V 390.1543 l 78.67578,45.42382 V 253.88281 Z" />
<path
 id="path1856"
 style="opacity:1;fill:#1a5fb4;fill-opacity:1;stroke-width:7.55906"
 d="m 853.82031,299.30859 v 90.84571 l 157.35159,90.84765 v -90.84961 z" />
<path
 id="path1858"
 style="opacity:1;fill:#26a269;fill-opacity:1;stroke-width:7.55906"
 d="m 853.82031,390.1543 -78.67578,45.42382 157.35156,90.84571 78.67581,-45.42188 z" />
<path
 id="path1860"
 style="opacity:1;fill:#26a269;fill-opacity:1;stroke-width:7.55906"
 d="m 853.82031,390.1543 -157.35156,90.84765 78.67578,45.42188 157.35156,-90.84571 z" />
</g>
<g
 id="g1882"
 transform="matrix(0.9532793,0,0,0.9532793,836.07079,580.69878)">
<path
 id="path1864"
 style="opacity:1;fill:#8ff0a4;fill-opacity:1;stroke-width:7.55906"
 d="m 853.82031,390.1543 -157.35156,90.84765 157.35156,90.84571 157.35159,-90.84571 z" />
<path
 id="path1866"
 style="opacity:1;fill:#f9f06b;fill-opacity:1;stroke-width:7.55906"
 d="m 853.82031,208.46094 -157.35156,90.8457 V 481.00195 L 853.82031,390.1543 Z" />
<path
 id="path1868"
 style="opacity:1;fill:#99c1f1;fill-opacity:1;stroke-width:7.55906"
 d="M 853.82031,208.46094 V 390.1543 l 157.35159,90.84765 V 299.30664 Z" />
<path
 id="path1870"
 style="opacity:1;fill:#e5a50a;fill-opacity:1;stroke-width:7.55906"
 d="m 853.82031,208.46094 -78.67578,45.42187 v 181.69531 l 78.67578,-45.42382 z" />
<path
 id="path1872"
 style="opacity:1;fill:#e5a50a;fill-opacity:1;stroke-width:7.55906"
 d="M 853.82031,299.30859 696.46875,390.1543 v 90.84765 L 853.82031,390.1543 Z" />
<path
 id="path1874"
 style="opacity:1;fill:#1a5fb4;fill-opacity:1;stroke-width:7.55906"
 d="M 853.82031,208.46094 V 390.1543 l 78.67578,45.42382 V 253.88281 Z" />
<path
 id="path1876"
 style="opacity:1;fill:#1a5fb4;fill-opacity:1;stroke-width:7.55906"
 d="m 853.82031,299.30859 v 90.84571 l 157.35159,90.84765 v -90.84961 z" />
<path
 id="path1878"
 style="opacity:1;fill:#26a269;fill-opacity:1;stroke-width:7.55906"
 d="m 853.82031,390.1543 -78.67578,45.42382 157.35156,90.84571 78.67581,-45.42188 z" />
<path
 id="path1880"
 style="opacity:1;fill:#26a269;fill-opacity:1;stroke-width:7.55906"
 d="m 853.82031,390.1543 -157.35156,90.84765 78.67578,45.42188 157.35156,-90.84571 z" />
</g>
<g
 id="g1902"
 transform="matrix(0.9532793,0,0,0.9532793,1136.0708,580.69785)">
<path
 id="path1884"
 style="opacity:1;fill:#8ff0a4;fill-opacity:1;stroke-width:7.55906"
 d="m 853.82031,390.1543 -157.35156,90.84765 157.35156,90.84571 157.35159,-90.84571 z" />
<path
 id="path1886"
 style="opacity:1;fill:#f9f06b;fill-opacity:1;stroke-width:7.55906"
 d="m 853.82031,208.46094 -157.35156,90.8457 V 481.00195 L 853.82031,390.1543 Z" />
<path
 id="path1888"
 style="opacity:1;fill:#99c1f1;fill-opacity:1;stroke-width:7.55906"
 d="M 853.82031,208.46094 V 390.1543 l 157.35159,90.84765 V 299.30664 Z" />
<path
 id="path1890"
 style="opacity:1;fill:#e5a50a;fill-opacity:1;stroke-width:7.55906"
 d="m 853.82031,208.46094 -78.67578,45.42187 v 181.69531 l 78.67578,-45.42382 z" />
<path
 id="path1892"
 style="opacity:1;fill:#e5a50a;fill-opacity:1;stroke-width:7.55906"
 d="M 853.82031,299.30859 696.46875,390.1543 v 90.84765 L 853.82031,390.1543 Z" />
<path
 id="path1894"
 style="opacity:1;fill:#1a5fb4;fill-opacity:1;stroke-width:7.55906"
 d="M 853.82031,208.46094 V 390.1543 l 78.67578,45.42382 V 253.88281 Z" />
<path
 id="path1896"
 style="opacity:1;fill:#1a5fb4;fill-opacity:1;stroke-width:7.55906"
 d="m 853.82031,299.30859 v 90.84571 l 157.35159,90.84765 v -90.84961 z" />
<path
 id="path1898"
 style="opacity:1;fill:#26a269;fill-opacity:1;stroke-width:7.55906"
 d="m 853.82031,390.1543 -78.67578,45.42382 157.35156,90.84571 78.67581,-45.42188 z" />
<path
 id="path1900"
 style="opacity:1;fill:#26a269;fill-opacity:1;stroke-width:7.55906"
 d="m 853.82031,390.1543 -157.35156,90.84765 78.67578,45.42188 157.35156,-90.84571 z" />
</g>
<g
 id="g1942"
 transform="matrix(0.9532793,0,0,0.9532793,-813.92924,840.51022)">
<path
 id="path1924"
 style="opacity:1;fill:#8ff0a4;fill-opacity:1;stroke-width:7.55906"
 d="m 853.82031,390.1543 -157.35156,90.84765 157.35156,90.84571 157.35159,-90.84571 z" />
<path
 id="path1926"
 style="opacity:1;fill:#f9f06b;fill-opacity:1;stroke-width:7.55906"
 d="m 853.82031,208.46094 -157.35156,90.8457 V 481.00195 L 853.82031,390.1543 Z" />
<path
 id="path1928"
 style="opacity:1;fill:#99c1f1;fill-opacity:1;stroke-width:7.55906"
 d="M 853.82031,208.46094 V 390.1543 l 157.35159,90.84765 V 299.30664 Z" />
<path
 id="path1930"
 style="opacity:1;fill:#e5a50a;fill-opacity:1;stroke-width:7.55906"
 d="m 853.82031,208.46094 -78.67578,45.42187 v 181.69531 l 78.67578,-45.42382 z" />
<path
 id="path1932"
 style="opacity:1;fill:#e5a50a;fill-opacity:1;stroke-width:7.55906"
 d="M 853.82031,299.30859 696.46875,390.1543 v 90.84765 L 853.82031,390.1543 Z" />
<path
 id="path1934"
 style="opacity:1;fill:#1a5fb4;fill-opacity:1;stroke-width:7.55906"
 d="M 853.82031,208.46094 V 390.1543 l 78.67578,45.42382 V 253.88281 Z" />
<path
 id="path1936"
 style="opacity:1;fill:#1a5fb4;fill-opacity:1;stroke-width:7.55906"
 d="m 853.82031,299.30859 v 90.84571 l 157.35159,90.84765 v -90.84961 z" />
<path
 id="path1938"
 style="opacity:1;fill:#26a269;fill-opacity:1;stroke-width:7.55906"
 d="m 853.82031,390.1543 -78.67578,45.42382 157.35156,90.84571 78.67581,-45.42188 z" />
<path
 id="path1940"
 style="opacity:1;fill:#26a269;fill-opacity:1;stroke-width:7.55906"
 d="m 853.82031,390.1543 -157.35156,90.84765 78.67578,45.42188 157.35156,-90.84571 z" />
</g>
<g
 id="g1962"
 transform="matrix(0.9532793,0,0,0.9532793,-513.92924,840.50929)">
<path
 id="path1944"
 style="opacity:1;fill:#8ff0a4;fill-opacity:1;stroke-width:7.55906"
 d="m 853.82031,390.1543 -157.35156,90.84765 157.35156,90.84571 157.35159,-90.84571 z" />
<path
 id="path1946"
 style="opacity:1;fill:#f9f06b;fill-opacity:1;stroke-width:7.55906"
 d="m 853.82031,208.46094 -157.35156,90.8457 V 481.00195 L 853.82031,390.1543 Z" />
<path
 id="path1948"
 style="opacity:1;fill:#99c1f1;fill-opacity:1;stroke-width:7.55906"
 d="M 853.82031,208.46094 V 390.1543 l 157.35159,90.84765 V 299.30664 Z" />
<path
 id="path1950"
 style="opacity:1;fill:#e5a50a;fill-opacity:1;stroke-width:7.55906"
 d="m 853.82031,208.46094 -78.67578,45.42187 v 181.69531 l 78.67578,-45.42382 z" />
<path
 id="path1952"
 style="opacity:1;fill:#e5a50a;fill-opacity:1;stroke-width:7.55906"
 d="M 853.82031,299.30859 696.46875,390.1543 v 90.84765 L 853.82031,390.1543 Z" />
<path
 id="path1954"
 style="opacity:1;fill:#1a5fb4;fill-opacity:1;stroke-width:7.55906"
 d="M 853.82031,208.46094 V 390.1543 l 78.67578,45.42382 V 253.88281 Z" />
<path
 id="path1956"
 style="opacity:1;fill:#1a5fb4;fill-opacity:1;stroke-width:7.55906"
 d="m 853.82031,299.30859 v 90.84571 l 157.35159,90.84765 v -90.84961 z" />
<path
 id="path1958"
 style="opacity:1;fill:#26a269;fill-opacity:1;stroke-width:7.55906"
 d="m 853.82031,390.1543 -78.67578,45.42382 157.35156,90.84571 78.67581,-45.42188 z" />
<path
 id="path1960"
 style="opacity:1;fill:#26a269;fill-opacity:1;stroke-width:7.55906"
 d="m 853.82031,390.1543 -157.35156,90.84765 78.67578,45.42188 157.35156,-90.84571 z" />
</g>
<g
 id="g1982"
 transform="matrix(0.9532793,0,0,0.9532793,-213.92924,840.50835)">
<path
 id="path1964"
 style="opacity:1;fill:#8ff0a4;fill-opacity:1;stroke-width:7.55906"
 d="m 853.82031,390.1543 -157.35156,90.84765 157.35156,90.84571 157.35159,-90.84571 z" />
<path
 id="path1966"
 style="opacity:1;fill:#f9f06b;fill-opacity:1;stroke-width:7.55906"
 d="m 853.82031,208.46094 -157.35156,90.8457 V 481.00195 L 853.82031,390.1543 Z" />
<path
 id="path1968"
 style="opacity:1;fill:#99c1f1;fill-opacity:1;stroke-width:7.55906"
 d="M 853.82031,208.46094 V 390.1543 l 157.35159,90.84765 V 299.30664 Z" />
<path
 id="path1970"
 style="opacity:1;fill:#e5a50a;fill-opacity:1;stroke-width:7.55906"
 d="m 853.82031,208.46094 -78.67578,45.42187 v 181.69531 l 78.67578,-45.42382 z" />
<path
 id="path1972"
 style="opacity:1;fill:#e5a50a;fill-opacity:1;stroke-width:7.55906"
 d="M 853.82031,299.30859 696.46875,390.1543 v 90.84765 L 853.82031,390.1543 Z" />
<path
 id="path1974"
 style="opacity:1;fill:#1a5fb4;fill-opacity:1;stroke-width:7.55906"
 d="M 853.82031,208.46094 V 390.1543 l 78.67578,45.42382 V 253.88281 Z" />
<path
 id="path1976"
 style="opacity:1;fill:#1a5fb4;fill-opacity:1;stroke-width:7.55906"
 d="m 853.82031,299.30859 v 90.84571 l 157.35159,90.84765 v -90.84961 z" />
<path
 id="path1978"
 style="opacity:1;fill:#26a269;fill-opacity:1;stroke-width:7.55906"
 d="m 853.82031,390.1543 -78.67578,45.42382 157.35156,90.84571 78.67581,-45.42188 z" />
<path
 id="path1980"
 style="opacity:1;fill:#26a269;fill-opacity:1;stroke-width:7.55906"
 d="m 853.82031,390.1543 -157.35156,90.84765 78.67578,45.42188 157.35156,-90.84571 z" />
</g>
<g
 id="g2002"
 transform="matrix(0.9532793,0,0,0.9532793,86.07076,840.50742)">
<path
 id="path1984"
 style="opacity:1;fill:#8ff0a4;fill-opacity:1;stroke-width:7.55906"
 d="m 853.82031,390.1543 -157.35156,90.84765 157.35156,90.84571 157.35159,-90.84571 z" />
<path
 id="path1986"
 style="opacity:1;fill:#f9f06b;fill-opacity:1;stroke-width:7.55906"
 d="m 853.82031,208.46094 -157.35156,90.8457 V 481.00195 L 853.82031,390.1543 Z" />
<path
 id="path1988"
 style="opacity:1;fill:#99c1f1;fill-opacity:1;stroke-width:7.55906"
 d="M 853.82031,208.46094 V 390.1543 l 157.35159,90.84765 V 299.30664 Z" />
<path
 id="path1990"
 style="opacity:1;fill:#e5a50a;fill-opacity:1;stroke-width:7.55906"
 d="m 853.82031,208.46094 -78.67578,45.42187 v 181.69531 l 78.67578,-45.42382 z" />
<path
 id="path1992"
 style="opacity:1;fill:#e5a50a;fill-opacity:1;stroke-width:7.55906"
 d="M 853.82031,299.30859 696.46875,390.1543 v 90.84765 L 853.82031,390.1543 Z" />
<path
 id="path1994"
 style="opacity:1;fill:#1a5fb4;fill-opacity:1;stroke-width:7.55906"
 d="M 853.82031,208.46094 V 390.1543 l 78.67578,45.42382 V 253.88281 Z" />
<path
 id="path1996"
 style="opacity:1;fill:#1a5fb4;fill-opacity:1;stroke-width:7.55906"
 d="m 853.82031,299.30859 v 90.84571 l 157.35159,90.84765 v -90.84961 z" />
<path
 id="path1998"
 style="opacity:1;fill:#26a269;fill-opacity:1;stroke-width:7.55906"
 d="m 853.82031,390.1543 -78.67578,45.42382 157.35156,90.84571 78.67581,-45.42188 z" />
<path
 id="path2000"
 style="opacity:1;fill:#26a269;fill-opacity:1;stroke-width:7.55906"
 d="m 853.82031,390.1543 -157.35156,90.84765 78.67578,45.42188 157.35156,-90.84571 z" />
</g>
<g
 id="g2022"
 transform="matrix(0.9532793,0,0,0.9532793,386.07076,840.50834)">
<path
 id="path2004"
 style="opacity:1;fill:#8ff0a4;fill-opacity:1;stroke-width:7.55906"
 d="m 853.82031,390.1543 -157.35156,90.84765 157.35156,90.84571 157.35159,-90.84571 z" />
<path
 id="path2006"
 style="opacity:1;fill:#f9f06b;fill-opacity:1;stroke-width:7.55906"
 d="m 853.82031,208.46094 -157.35156,90.8457 V 481.00195 L 853.82031,390.1543 Z" />
<path
 id="path2008"
 style="opacity:1;fill:#99c1f1;fill-opacity:1;stroke-width:7.55906"
 d="M 853.82031,208.46094 V 390.1543 l 157.35159,90.84765 V 299.30664 Z" />
<path
 id="path2010"
 style="opacity:1;fill:#e5a50a;fill-opacity:1;stroke-width:7.55906"
 d="m 853.82031,208.46094 -78.67578,45.42187 v 181.69531 l 78.67578,-45.42382 z" />
<path
 id="path2012"
 style="opacity:1;fill:#e5a50a;fill-opacity:1;stroke-width:7.55906"
 d="M 853.82031,299.30859 696.46875,390.1543 v 90.84765 L 853.82031,390.1543 Z" />
<path
 id="path2014"
 style="opacity:1;fill:#1a5fb4;fill-opacity:1;stroke-width:7.55906"
 d="M 853.82031,208.46094 V 390.1543 l 78.67578,45.42382 V 253.88281 Z" />
<path
 id="path2016"
 style="opacity:1;fill:#1a5fb4;fill-opacity:1;stroke-width:7.55906"
 d="m 853.82031,299.30859 v 90.84571 l 157.35159,90.84765 v -90.84961 z" />
<path
 id="path2018"
 style="opacity:1;fill:#26a269;fill-opacity:1;stroke-width:7.55906"
 d="m 853.82031,390.1543 -78.67578,45.42382 157.35156,90.84571 78.67581,-45.42188 z" />
<path
 id="path2020"
 style="opacity:1;fill:#26a269;fill-opacity:1;stroke-width:7.55906"
 d="m 853.82031,390.1543 -157.35156,90.84765 78.67578,45.42188 157.35156,-90.84571 z" />
</g>
<g
 id="g2042"
 transform="matrix(0.9532793,0,0,0.9532793,686.07079,840.50741)">
<path
 id="path2024"
 style="opacity:1;fill:#8ff0a4;fill-opacity:1;stroke-width:7.55906"
 d="m 853.82031,390.1543 -157.35156,90.84765 157.35156,90.84571 157.35159,-90.84571 z" />
<path
 id="path2026"
 style="opacity:1;fill:#f9f06b;fill-opacity:1;stroke-width:7.55906"
 d="m 853.82031,208.46094 -157.35156,90.8457 V 481.00195 L 853.82031,390.1543 Z" />
<path
 id="path2028"
 style="opacity:1;fill:#99c1f1;fill-opacity:1;stroke-width:7.55906"
 d="M 853.82031,208.46094 V 390.1543 l 157.35159,90.84765 V 299.30664 Z" />
<path
 id="path2030"
 style="opacity:1;fill:#e5a50a;fill-opacity:1;stroke-width:7.55906"
 d="m 853.82031,208.46094 -78.67578,45.42187 v 181.69531 l 78.67578,-45.42382 z" />
<path
 id="path2032"
 style="opacity:1;fill:#e5a50a;fill-opacity:1;stroke-width:7.55906"
 d="M 853.82031,299.30859 696.46875,390.1543 v 90.84765 L 853.82031,390.1543 Z" />
<path
 id="path2034"
 style="opacity:1;fill:#1a5fb4;fill-opacity:1;stroke-width:7.55906"
 d="M 853.82031,208.46094 V 390.1543 l 78.67578,45.42382 V 253.88281 Z" />
<path
 id="path2036"
 style="opacity:1;fill:#1a5fb4;fill-opacity:1;stroke-width:7.55906"
 d="m 853.82031,299.30859 v 90.84571 l 157.35159,90.84765 v -90.84961 z" />
<path
 id="path2038"
 style="opacity:1;fill:#26a269;fill-opacity:1;stroke-width:7.55906"
 d="m 853.82031,390.1543 -78.67578,45.42382 157.35156,90.84571 78.67581,-45.42188 z" />
<path
 id="path2040"
 style="opacity:1;fill:#26a269;fill-opacity:1;stroke-width:7.55906"
 d="m 853.82031,390.1543 -157.35156,90.84765 78.67578,45.42188 157.35156,-90.84571 z" />
</g>
<g
 id="g2062"
 transform="matrix(0.9532793,0,0,0.9532793,986.0708,840.50648)">
<path
 id="path2044"
 style="opacity:1;fill:#8ff0a4;fill-opacity:1;stroke-width:7.55906"
 d="m 853.82031,390.1543 -157.35156,90.84765 157.35156,90.84571 157.35159,-90.84571 z" />
<path
 id="path2046"
 style="opacity:1;fill:#f9f06b;fill-opacity:1;stroke-width:7.55906"
 d="m 853.82031,208.46094 -157.35156,90.8457 V 481.00195 L 853.82031,390.1543 Z" />
<path
 id="path2048"
 style="opacity:1;fill:#99c1f1;fill-opacity:1;stroke-width:7.55906"
 d="M 853.82031,208.46094 V 390.1543 l 157.35159,90.84765 V 299.30664 Z" />
<path
 id="path2050"
 style="opacity:1;fill:#e5a50a;fill-opacity:1;stroke-width:7.55906"
 d="m 853.82031,208.46094 -78.67578,45.42187 v 181.69531 l 78.67578,-45.42382 z" />
<path
 id="path2052"
 style="opacity:1;fill:#e5a50a;fill-opacity:1;stroke-width:7.55906"
 d="M 853.82031,299.30859 696.46875,390.1543 v 90.84765 L 853.82031,390.1543 Z" />
<path
 id="path2054"
 style="opacity:1;fill:#1a5fb4;fill-opacity:1;stroke-width:7.55906"
 d="M 853.82031,208.46094 V 390.1543 l 78.67578,45.42382 V 253.88281 Z" />
<path
 id="path2056"
 style="opacity:1;fill:#1a5fb4;fill-opacity:1;stroke-width:7.55906"
 d="m 853.82031,299.30859 v 90.84571 l 157.35159,90.84765 v -90.84961 z" />
<path
 id="path2058"
 style="opacity:1;fill:#26a269;fill-opacity:1;stroke-width:7.55906"
 d="m 853.82031,390.1543 -78.67578,45.42382 157.35156,90.84571 78.67581,-45.42188 z" />
<path
 id="path2060"
 style="opacity:1;fill:#26a269;fill-opacity:1;stroke-width:7.55906"
 d="m 853.82031,390.1543 -157.35156,90.84765 78.67578,45.42188 157.35156,-90.84571 z" />
</g>
<g
 id="g2102"
 transform="matrix(0.9532793,0,0,0.9532793,-663.92924,-458.52828)">
<path
 id="path2084"
 style="opacity:1;fill:#8ff0a4;fill-opacity:1;stroke-width:7.55906"
 d="m 853.82031,390.1543 -157.35156,90.84765 157.35156,90.84571 157.35159,-90.84571 z" />
<path
 id="path2086"
 style="opacity:1;fill:#f9f06b;fill-opacity:1;stroke-width:7.55906"
 d="m 853.82031,208.46094 -157.35156,90.8457 V 481.00195 L 853.82031,390.1543 Z" />
<path
 id="path2088"
 style="opacity:1;fill:#99c1f1;fill-opacity:1;stroke-width:7.55906"
 d="M 853.82031,208.46094 V 390.1543 l 157.35159,90.84765 V 299.30664 Z" />
<path
 id="path2090"
 style="opacity:1;fill:#e5a50a;fill-opacity:1;stroke-width:7.55906"
 d="m 853.82031,208.46094 -78.67578,45.42187 v 181.69531 l 78.67578,-45.42382 z" />
<path
 id="path2092"
 style="opacity:1;fill:#e5a50a;fill-opacity:1;stroke-width:7.55906"
 d="M 853.82031,299.30859 696.46875,390.1543 v 90.84765 L 853.82031,390.1543 Z" />
<path
 id="path2094"
 style="opacity:1;fill:#1a5fb4;fill-opacity:1;stroke-width:7.55906"
 d="M 853.82031,208.46094 V 390.1543 l 78.67578,45.42382 V 253.88281 Z" />
<path
 id="path2096"
 style="opacity:1;fill:#1a5fb4;fill-opacity:1;stroke-width:7.55906"
 d="m 853.82031,299.30859 v 90.84571 l 157.35159,90.84765 v -90.84961 z" />
<path
 id="path2098"
 style="opacity:1;fill:#26a269;fill-opacity:1;stroke-width:7.55906"
 d="m 853.82031,390.1543 -78.67578,45.42382 157.35156,90.84571 78.67581,-45.42188 z" />
<path
 id="path2100"
 style="opacity:1;fill:#26a269;fill-opacity:1;stroke-width:7.55906"
 d="m 853.82031,390.1543 -157.35156,90.84765 78.67578,45.42188 157.35156,-90.84571 z" />
</g>
<g
 id="g2122"
 transform="matrix(0.9532793,0,0,0.9532793,-363.92924,-458.52921)">
<path
 id="path2104"
 style="opacity:1;fill:#8ff0a4;fill-opacity:1;stroke-width:7.55906"
 d="m 853.82031,390.1543 -157.35156,90.84765 157.35156,90.84571 157.35159,-90.84571 z" />
<path
 id="path2106"
 style="opacity:1;fill:#f9f06b;fill-opacity:1;stroke-width:7.55906"
 d="m 853.82031,208.46094 -157.35156,90.8457 V 481.00195 L 853.82031,390.1543 Z" />
<path
 id="path2108"
 style="opacity:1;fill:#99c1f1;fill-opacity:1;stroke-width:7.55906"
 d="M 853.82031,208.46094 V 390.1543 l 157.35159,90.84765 V 299.30664 Z" />
<path
 id="path2110"
 style="opacity:1;fill:#e5a50a;fill-opacity:1;stroke-width:7.55906"
 d="m 853.82031,208.46094 -78.67578,45.42187 v 181.69531 l 78.67578,-45.42382 z" />
<path
 id="path2112"
 style="opacity:1;fill:#e5a50a;fill-opacity:1;stroke-width:7.55906"
 d="M 853.82031,299.30859 696.46875,390.1543 v 90.84765 L 853.82031,390.1543 Z" />
<path
 id="path2114"
 style="opacity:1;fill:#1a5fb4;fill-opacity:1;stroke-width:7.55906"
 d="M 853.82031,208.46094 V 390.1543 l 78.67578,45.42382 V 253.88281 Z" />
<path
 id="path2116"
 style="opacity:1;fill:#1a5fb4;fill-opacity:1;stroke-width:7.55906"
 d="m 853.82031,299.30859 v 90.84571 l 157.35159,90.84765 v -90.84961 z" />
<path
 id="path2118"
 style="opacity:1;fill:#26a269;fill-opacity:1;stroke-width:7.55906"
 d="m 853.82031,390.1543 -78.67578,45.42382 157.35156,90.84571 78.67581,-45.42188 z" />
<path
 id="path2120"
 style="opacity:1;fill:#26a269;fill-opacity:1;stroke-width:7.55906"
 d="m 853.82031,390.1543 -157.35156,90.84765 78.67578,45.42188 157.35156,-90.84571 z" />
</g>
<g
 id="g2142"
 transform="matrix(0.9532793,0,0,0.9532793,-63.929236,-458.53015)">
<path
 id="path2124"
 style="opacity:1;fill:#8ff0a4;fill-opacity:1;stroke-width:7.55906"
 d="m 853.82031,390.1543 -157.35156,90.84765 157.35156,90.84571 157.35159,-90.84571 z" />
<path
 id="path2126"
 style="opacity:1;fill:#f9f06b;fill-opacity:1;stroke-width:7.55906"
 d="m 853.82031,208.46094 -157.35156,90.8457 V 481.00195 L 853.82031,390.1543 Z" />
<path
 id="path2128"
 style="opacity:1;fill:#99c1f1;fill-opacity:1;stroke-width:7.55906"
 d="M 853.82031,208.46094 V 390.1543 l 157.35159,90.84765 V 299.30664 Z" />
<path
 id="path2130"
 style="opacity:1;fill:#e5a50a;fill-opacity:1;stroke-width:7.55906"
 d="m 853.82031,208.46094 -78.67578,45.42187 v 181.69531 l 78.67578,-45.42382 z" />
<path
 id="path2132"
 style="opacity:1;fill:#e5a50a;fill-opacity:1;stroke-width:7.55906"
 d="M 853.82031,299.30859 696.46875,390.1543 v 90.84765 L 853.82031,390.1543 Z" />
<path
 id="path2134"
 style="opacity:1;fill:#1a5fb4;fill-opacity:1;stroke-width:7.55906"
 d="M 853.82031,208.46094 V 390.1543 l 78.67578,45.42382 V 253.88281 Z" />
<path
 id="path2136"
 style="opacity:1;fill:#1a5fb4;fill-opacity:1;stroke-width:7.55906"
 d="m 853.82031,299.30859 v 90.84571 l 157.35159,90.84765 v -90.84961 z" />
<path
 id="path2138"
 style="opacity:1;fill:#26a269;fill-opacity:1;stroke-width:7.55906"
 d="m 853.82031,390.1543 -78.67578,45.42382 157.35156,90.84571 78.67581,-45.42188 z" />
<path
 id="path2140"
 style="opacity:1;fill:#26a269;fill-opacity:1;stroke-width:7.55906"
 d="m 853.82031,390.1543 -157.35156,90.84765 78.67578,45.42188 157.35156,-90.84571 z" />
</g>
<g
 id="g2162"
 transform="matrix(0.9532793,0,0,0.9532793,236.07076,-458.53108)">
<path
 id="path2144"
 style="opacity:1;fill:#8ff0a4;fill-opacity:1;stroke-width:7.55906"
 d="m 853.82031,390.1543 -157.35156,90.84765 157.35156,90.84571 157.35159,-90.84571 z" />
<path
 id="path2146"
 style="opacity:1;fill:#f9f06b;fill-opacity:1;stroke-width:7.55906"
 d="m 853.82031,208.46094 -157.35156,90.8457 V 481.00195 L 853.82031,390.1543 Z" />
<path
 id="path2148"
 style="opacity:1;fill:#99c1f1;fill-opacity:1;stroke-width:7.55906"
 d="M 853.82031,208.46094 V 390.1543 l 157.35159,90.84765 V 299.30664 Z" />
<path
 id="path2150"
 style="opacity:1;fill:#e5a50a;fill-opacity:1;stroke-width:7.55906"
 d="m 853.82031,208.46094 -78.67578,45.42187 v 181.69531 l 78.67578,-45.42382 z" />
<path
 id="path2152"
 style="opacity:1;fill:#e5a50a;fill-opacity:1;stroke-width:7.55906"
 d="M 853.82031,299.30859 696.46875,390.1543 v 90.84765 L 853.82031,390.1543 Z" />
<path
 id="path2154"
 style="opacity:1;fill:#1a5fb4;fill-opacity:1;stroke-width:7.55906"
 d="M 853.82031,208.46094 V 390.1543 l 78.67578,45.42382 V 253.88281 Z" />
<path
 id="path2156"
 style="opacity:1;fill:#1a5fb4;fill-opacity:1;stroke-width:7.55906"
 d="m 853.82031,299.30859 v 90.84571 l 157.35159,90.84765 v -90.84961 z" />
<path
 id="path2158"
 style="opacity:1;fill:#26a269;fill-opacity:1;stroke-width:7.55906"
 d="m 853.82031,390.1543 -78.67578,45.42382 157.35156,90.84571 78.67581,-45.42188 z" />
<path
 id="path2160"
 style="opacity:1;fill:#26a269;fill-opacity:1;stroke-width:7.55906"
 d="m 853.82031,390.1543 -157.35156,90.84765 78.67578,45.42188 157.35156,-90.84571 z" />
</g>
<g
 id="g2182"
 transform="matrix(0.9532793,0,0,0.9532793,536.07076,-458.53016)">
<path
 id="path2164"
 style="opacity:1;fill:#8ff0a4;fill-opacity:1;stroke-width:7.55906"
 d="m 853.82031,390.1543 -157.35156,90.84765 157.35156,90.84571 157.35159,-90.84571 z" />
<path
 id="path2166"
 style="opacity:1;fill:#f9f06b;fill-opacity:1;stroke-width:7.55906"
 d="m 853.82031,208.46094 -157.35156,90.8457 V 481.00195 L 853.82031,390.1543 Z" />
<path
 id="path2168"
 style="opacity:1;fill:#99c1f1;fill-opacity:1;stroke-width:7.55906"
 d="M 853.82031,208.46094 V 390.1543 l 157.35159,90.84765 V 299.30664 Z" />
<path
 id="path2170"
 style="opacity:1;fill:#e5a50a;fill-opacity:1;stroke-width:7.55906"
 d="m 853.82031,208.46094 -78.67578,45.42187 v 181.69531 l 78.67578,-45.42382 z" />
<path
 id="path2172"
 style="opacity:1;fill:#e5a50a;fill-opacity:1;stroke-width:7.55906"
 d="M 853.82031,299.30859 696.46875,390.1543 v 90.84765 L 853.82031,390.1543 Z" />
<path
 id="path2174"
 style="opacity:1;fill:#1a5fb4;fill-opacity:1;stroke-width:7.55906"
 d="M 853.82031,208.46094 V 390.1543 l 78.67578,45.42382 V 253.88281 Z" />
<path
 id="path2176"
 style="opacity:1;fill:#1a5fb4;fill-opacity:1;stroke-width:7.55906"
 d="m 853.82031,299.30859 v 90.84571 l 157.35159,90.84765 v -90.84961 z" />
<path
 id="path2178"
 style="opacity:1;fill:#26a269;fill-opacity:1;stroke-width:7.55906"
 d="m 853.82031,390.1543 -78.67578,45.42382 157.35156,90.84571 78.67581,-45.42188 z" />
<path
 id="path2180"
 style="opacity:1;fill:#26a269;fill-opacity:1;stroke-width:7.55906"
 d="m 853.82031,390.1543 -157.35156,90.84765 78.67578,45.42188 157.35156,-90.84571 z" />
</g>
<g
 id="g2202"
 transform="matrix(0.9532793,0,0,0.9532793,836.07079,-458.53109)">
<path
 id="path2184"
 style="opacity:1;fill:#8ff0a4;fill-opacity:1;stroke-width:7.55906"
 d="m 853.82031,390.1543 -157.35156,90.84765 157.35156,90.84571 157.35159,-90.84571 z" />
<path
 id="path2186"
 style="opacity:1;fill:#f9f06b;fill-opacity:1;stroke-width:7.55906"
 d="m 853.82031,208.46094 -157.35156,90.8457 V 481.00195 L 853.82031,390.1543 Z" />
<path
 id="path2188"
 style="opacity:1;fill:#99c1f1;fill-opacity:1;stroke-width:7.55906"
 d="M 853.82031,208.46094 V 390.1543 l 157.35159,90.84765 V 299.30664 Z" />
<path
 id="path2190"
 style="opacity:1;fill:#e5a50a;fill-opacity:1;stroke-width:7.55906"
 d="m 853.82031,208.46094 -78.67578,45.42187 v 181.69531 l 78.67578,-45.42382 z" />
<path
 id="path2192"
 style="opacity:1;fill:#e5a50a;fill-opacity:1;stroke-width:7.55906"
 d="M 853.82031,299.30859 696.46875,390.1543 v 90.84765 L 853.82031,390.1543 Z" />
<path
 id="path2194"
 style="opacity:1;fill:#1a5fb4;fill-opacity:1;stroke-width:7.55906"
 d="M 853.82031,208.46094 V 390.1543 l 78.67578,45.42382 V 253.88281 Z" />
<path
 id="path2196"
 style="opacity:1;fill:#1a5fb4;fill-opacity:1;stroke-width:7.55906"
 d="m 853.82031,299.30859 v 90.84571 l 157.35159,90.84765 v -90.84961 z" />
<path
 id="path2198"
 style="opacity:1;fill:#26a269;fill-opacity:1;stroke-width:7.55906"
 d="m 853.82031,390.1543 -78.67578,45.42382 157.35156,90.84571 78.67581,-45.42188 z" />
<path
 id="path2200"
 style="opacity:1;fill:#26a269;fill-opacity:1;stroke-width:7.55906"
 d="m 853.82031,390.1543 -157.35156,90.84765 78.67578,45.42188 157.35156,-90.84571 z" />
</g>
<g
 id="g2222"
 transform="matrix(0.9532793,0,0,0.9532793,1136.0708,-458.53202)">
<path
 id="path2204"
 style="opacity:1;fill:#8ff0a4;fill-opacity:1;stroke-width:7.55906"
 d="m 853.82031,390.1543 -157.35156,90.84765 157.35156,90.84571 157.35159,-90.84571 z" />
<path
 id="path2206"
 style="opacity:1;fill:#f9f06b;fill-opacity:1;stroke-width:7.55906"
 d="m 853.82031,208.46094 -157.35156,90.8457 V 481.00195 L 853.82031,390.1543 Z" />
<path
 id="path2208"
 style="opacity:1;fill:#99c1f1;fill-opacity:1;stroke-width:7.55906"
 d="M 853.82031,208.46094 V 390.1543 l 157.35159,90.84765 V 299.30664 Z" />
<path
 id="path2210"
 style="opacity:1;fill:#e5a50a;fill-opacity:1;stroke-width:7.55906"
 d="m 853.82031,208.46094 -78.67578,45.42187 v 181.69531 l 78.67578,-45.42382 z" />
<path
 id="path2212"
 style="opacity:1;fill:#e5a50a;fill-opacity:1;stroke-width:7.55906"
 d="M 853.82031,299.30859 696.46875,390.1543 v 90.84765 L 853.82031,390.1543 Z" />
<path
 id="path2214"
 style="opacity:1;fill:#1a5fb4;fill-opacity:1;stroke-width:7.55906"
 d="M 853.82031,208.46094 V 390.1543 l 78.67578,45.42382 V 253.88281 Z" />
<path
 id="path2216"
 style="opacity:1;fill:#1a5fb4;fill-opacity:1;stroke-width:7.55906"
 d="m 853.82031,299.30859 v 90.84571 l 157.35159,90.84765 v -90.84961 z" />
<path
 id="path2218"
 style="opacity:1;fill:#26a269;fill-opacity:1;stroke-width:7.55906"
 d="m 853.82031,390.1543 -78.67578,45.42382 157.35156,90.84571 78.67581,-45.42188 z" />
<path
 id="path2220"
 style="opacity:1;fill:#26a269;fill-opacity:1;stroke-width:7.55906"
 d="m 853.82031,390.1543 -157.35156,90.84765 78.67578,45.42188 157.35156,-90.84571 z" />
</g>
</g>
</g>
</svg>
